<svg width="160" height="86" viewBox="0 0 160 86" fill="none" xmlns="http://www.w3.org/2000/svg">
<path d="M2.10523 76.4424L9.20439 75.0226C9.46551 76.5893 10.1509 77.8133 11.2607 78.6946C12.4031 79.5432 13.9045 79.9675 15.765 79.9675C17.4296 79.9675 18.7842 79.5922 19.8286 78.8414C20.9058 78.0581 21.4443 77.0952 21.4443 75.9528C21.4443 75.0715 21.1016 74.3372 20.4162 73.7496C19.7307 73.1295 18.8331 72.6399 17.7234 72.2808C16.6463 71.9218 15.4549 71.5791 14.1493 71.2527C12.8437 70.9263 11.5218 70.5183 10.1836 70.0287C8.87799 69.5391 7.67032 68.9516 6.56056 68.2661C5.48345 67.5807 4.60218 66.6178 3.91674 65.3775C3.2313 64.1046 2.88859 62.6031 2.88859 60.8732C2.88859 58.0009 4.09626 55.6019 6.5116 53.6761C8.95959 51.7178 11.9461 50.7386 15.4712 50.7386C19.029 50.7386 21.9666 51.6198 24.284 53.3824C26.6014 55.1449 27.9723 57.446 28.3966 60.2857L21.2974 61.7055C21.0363 60.2041 20.3672 59.0128 19.2901 58.1315C18.2456 57.2176 16.8911 56.7606 15.2264 56.7606C13.725 56.7606 12.501 57.1196 11.5545 57.8377C10.6079 58.5232 10.1346 59.4044 10.1346 60.4815C10.1346 61.3302 10.4773 62.0483 11.1628 62.6358C11.8482 63.1906 12.7295 63.6476 13.8066 64.0066C14.9164 64.333 16.124 64.6594 17.4296 64.9858C18.7352 65.3122 20.0408 65.7366 21.3464 66.2588C22.6846 66.7484 23.8923 67.3522 24.9694 68.0703C26.0792 68.7884 26.9768 69.8002 27.6622 71.1058C28.3476 72.4114 28.6904 73.9618 28.6904 75.757C28.6904 78.6619 27.4174 81.0936 24.8715 83.052C22.3582 85.0104 19.2575 85.9896 15.5692 85.9896C11.8809 85.9896 8.82903 85.1246 6.41369 83.3947C3.99834 81.6648 2.56219 79.3474 2.10523 76.4424Z" fill="white"/>
<path d="M36.0844 82.2197C33.5059 79.7064 32.2166 76.5893 32.2166 72.8684C32.2166 69.1474 33.5059 66.0303 36.0844 63.517C38.663 61.0038 41.878 59.7472 45.7295 59.7472C48.4386 59.7472 50.8703 60.4489 53.0245 61.8524C55.1787 63.2559 56.7944 65.2306 57.8715 67.7765L51.8005 69.8818C51.2456 68.5762 50.4296 67.5807 49.3525 66.8953C48.2754 66.1772 47.0677 65.8182 45.7295 65.8182C43.8364 65.8182 42.2533 66.5036 40.9804 67.8745C39.7074 69.2127 39.071 70.8773 39.071 72.8684C39.071 74.892 39.7074 76.5893 40.9804 77.9602C42.2533 79.2984 43.8364 79.9675 45.7295 79.9675C47.0677 79.9675 48.2754 79.6085 49.3525 78.8904C50.4296 78.1723 51.2456 77.1605 51.8005 75.8549L57.8715 77.9602C56.7944 80.5061 55.1787 82.4808 53.0245 83.8843C50.8703 85.2878 48.4386 85.9896 45.7295 85.9896C41.878 85.9896 38.663 84.7329 36.0844 82.2197Z" fill="white"/>
<path d="M77.1119 59.7472C79.9189 59.7472 82.1711 60.7263 83.8683 62.6847C85.5983 64.6431 86.4632 67.1401 86.4632 70.1756V85.5H79.8536V71.3506C79.8536 69.7186 79.3314 68.3804 78.2869 67.3359C77.2425 66.2914 75.9369 65.7692 74.3702 65.7692C72.6076 65.7692 71.1715 66.2914 70.0617 67.3359C68.952 68.3804 68.3971 69.7186 68.3971 71.3506V85.5H61.7875V49.2698H68.3971V66.6994C69.0499 64.5452 70.1433 62.8479 71.6774 61.6076C73.2441 60.3673 75.0556 59.7472 77.1119 59.7472Z" fill="white"/>
<path d="M94.4632 82.2197C91.8846 79.7064 90.5953 76.5893 90.5953 72.8684C90.5953 69.1474 91.8846 66.0303 94.4632 63.517C97.0417 61.0038 100.257 59.7472 104.108 59.7472C107.96 59.7472 111.175 61.0038 113.753 63.517C116.332 66.0303 117.621 69.1474 117.621 72.8684C117.621 76.5893 116.332 79.7064 113.753 82.2197C111.175 84.7329 107.96 85.9896 104.108 85.9896C100.257 85.9896 97.0417 84.7329 94.4632 82.2197ZM97.4497 72.8684C97.4497 74.892 98.0862 76.5893 99.3591 77.9602C100.632 79.2984 102.215 79.9675 104.108 79.9675C106.001 79.9675 107.584 79.2984 108.857 77.9602C110.13 76.5893 110.767 74.892 110.767 72.8684C110.767 70.8447 110.13 69.1637 108.857 67.8255C107.584 66.4873 106.001 65.8182 104.108 65.8182C102.215 65.8182 100.632 66.5036 99.3591 67.8745C98.0862 69.2127 97.4497 70.8773 97.4497 72.8684Z" fill="white"/>
<path d="M124.728 82.2197C122.15 79.7064 120.86 76.5893 120.86 72.8684C120.86 69.1474 122.15 66.0303 124.728 63.517C127.307 61.0038 130.522 59.7472 134.373 59.7472C138.225 59.7472 141.44 61.0038 144.018 63.517C146.597 66.0303 147.886 69.1474 147.886 72.8684C147.886 76.5893 146.597 79.7064 144.018 82.2197C141.44 84.7329 138.225 85.9896 134.373 85.9896C130.522 85.9896 127.307 84.7329 124.728 82.2197ZM127.715 72.8684C127.715 74.892 128.351 76.5893 129.624 77.9602C130.897 79.2984 132.48 79.9675 134.373 79.9675C136.266 79.9675 137.849 79.2984 139.122 77.9602C140.395 76.5893 141.032 74.892 141.032 72.8684C141.032 70.8447 140.395 69.1637 139.122 67.8255C137.849 66.4873 136.266 65.8182 134.373 65.8182C132.48 65.8182 130.897 66.5036 129.624 67.8745C128.351 69.2127 127.715 70.8773 127.715 72.8684Z" fill="white"/>
<path d="M158.81 85.5H152.2V49.2698H158.81V85.5Z" fill="white"/>
<path fill-rule="evenodd" clip-rule="evenodd" d="M159.685 37.3296H72.6883V28.3296H159.685V37.3296Z" fill="white"/>
<path d="M35.7406 36.5H28.2497L25.8017 29.0581H9.69399L7.29496 36.5H0.195801L11.7503 2.22816H24.1861L35.7406 36.5ZM17.7723 4.28447L11.7013 22.8402H23.7944L17.7723 4.28447Z" fill="white"/>
<path d="M45.2081 36.5H38.5986V0.269775H45.2081V36.5Z" fill="white"/>
<path d="M53.6372 17.063H48.5454V11.2368H53.6372V3.79487L60.2468 1.73857V11.2368H66.8074V17.063H60.2468V27.0997C60.2468 29.4824 61.4382 30.6738 63.8209 30.6738H66.8074V36.5H63.8209C60.361 36.5 57.7988 35.7003 56.1342 34.1009C54.4696 32.469 53.6372 30.0046 53.6372 26.708V17.063Z" fill="white"/>
<path d="M55.8872 17.074L65.1787 17.074L65.1787 21.0504L55.8872 17.074Z" fill="white"/>
</svg>
