<svg width="247" height="132" viewBox="0 0 247 132" fill="none" xmlns="http://www.w3.org/2000/svg">
<ellipse cx="108.078" cy="23.5779" rx="22.7254" ry="22.7254" fill="#28CDCF"/>
<ellipse cx="149.118" cy="23.5784" rx="12.4065" ry="12.4065" fill="#A873E8"/>
<path d="M8.90581 113.147V107.819H17.6898C19.2578 107.819 20.4738 107.339 21.3378 106.379C22.2338 105.419 22.6818 104.283 22.6818 102.971C22.6818 102.075 22.4898 101.259 22.1058 100.523C21.7218 99.7872 21.1458 99.2112 20.3778 98.7952C19.6418 98.3472 18.7458 98.1232 17.6898 98.1232H8.90581V92.8432H16.9698C18.3138 92.8432 19.3858 92.5072 20.1858 91.8352C21.0178 91.1632 21.4338 90.1552 21.4338 88.8112C21.4338 87.4352 21.0178 86.4112 20.1858 85.7392C19.3858 85.0672 18.3138 84.7312 16.9698 84.7312H8.90581V79.4032H17.7378C19.9778 79.4032 21.8498 79.8192 23.3538 80.6512C24.8898 81.4512 26.0418 82.5232 26.8098 83.8672C27.5778 85.1792 27.9618 86.6192 27.9618 88.1872C27.9618 90.1072 27.3698 91.7712 26.1858 93.1792C25.0338 94.5552 23.3378 95.5792 21.0978 96.2512L21.3858 94.1392C23.8818 94.8432 25.8018 96.0112 27.1458 97.6432C28.5218 99.2432 29.2098 101.179 29.2098 103.451C29.2098 105.243 28.7618 106.875 27.8658 108.347C27.0018 109.787 25.7218 110.955 24.0258 111.851C22.3618 112.715 20.3298 113.147 17.9298 113.147H8.90581ZM4.10581 113.147V79.4032H10.5858V113.147H4.10581ZM33.7151 113.147V89.9632H40.0511V113.147H33.7151ZM36.8831 86.2192C35.8591 86.2192 35.0111 85.8832 34.3391 85.2112C33.6671 84.5072 33.3311 83.6432 33.3311 82.6192C33.3311 81.6272 33.6671 80.7792 34.3391 80.0752C35.0111 79.3712 35.8591 79.0192 36.8831 79.0192C37.9391 79.0192 38.7871 79.3712 39.4271 80.0752C40.0991 80.7792 40.4351 81.6272 40.4351 82.6192C40.4351 83.6432 40.0991 84.5072 39.4271 85.2112C38.7871 85.8832 37.9391 86.2192 36.8831 86.2192ZM58.4853 113.627C56.8213 113.627 55.3173 113.275 53.9733 112.571C52.6293 111.867 51.5573 110.907 50.7573 109.691C49.9573 108.475 49.5253 107.115 49.4613 105.611V97.3552C49.5253 95.8512 49.9573 94.5072 50.7573 93.3232C51.5893 92.1072 52.6773 91.1632 54.0213 90.4912C55.3653 89.8192 56.8533 89.4832 58.4853 89.4832C60.6293 89.4832 62.5493 90.0112 64.2453 91.0672C65.9413 92.1232 67.2693 93.5632 68.2293 95.3872C69.2213 97.2112 69.7173 99.2752 69.7173 101.579C69.7173 103.851 69.2213 105.899 68.2293 107.723C67.2693 109.547 65.9413 110.987 64.2453 112.043C62.5493 113.099 60.6293 113.627 58.4853 113.627ZM57.4293 107.819C58.5813 107.819 59.5893 107.563 60.4533 107.051C61.3493 106.507 62.0373 105.771 62.5173 104.843C63.0293 103.883 63.2853 102.779 63.2853 101.531C63.2853 100.315 63.0293 99.2432 62.5173 98.3152C62.0373 97.3552 61.3493 96.6192 60.4533 96.1072C59.5573 95.5632 58.5333 95.2912 57.3813 95.2912C56.2293 95.2912 55.2053 95.5632 54.3093 96.1072C53.4453 96.6192 52.7573 97.3552 52.2453 98.3152C51.7653 99.2432 51.5253 100.315 51.5253 101.531C51.5253 102.779 51.7653 103.883 52.2453 104.843C52.7573 105.771 53.4613 106.507 54.3573 107.051C55.2533 107.563 56.2773 107.819 57.4293 107.819ZM45.6213 113.147V78.4432H51.9093V95.6752L50.8533 101.243L51.8613 106.907V113.147H45.6213ZM73.84 113.147V78.4432H80.128V113.147H73.84ZM96.7874 113.627C94.3554 113.627 92.1954 113.115 90.3074 112.091C88.4194 111.035 86.9154 109.595 85.7954 107.771C84.7074 105.947 84.1634 103.867 84.1634 101.531C84.1634 99.2272 84.6914 97.1792 85.7474 95.3872C86.8354 93.5632 88.3074 92.1232 90.1634 91.0672C92.0194 89.9792 94.0834 89.4352 96.3554 89.4352C98.5954 89.4352 100.563 89.9472 102.259 90.9712C103.987 91.9632 105.331 93.3392 106.291 95.0992C107.283 96.8272 107.779 98.7952 107.779 101.003C107.779 101.419 107.747 101.851 107.683 102.299C107.651 102.715 107.571 103.195 107.443 103.739L87.9554 103.787V99.0832L104.515 99.0352L101.971 101.003C101.907 99.6272 101.651 98.4752 101.203 97.5472C100.787 96.6192 100.163 95.9152 99.3314 95.4352C98.5314 94.9232 97.5394 94.6672 96.3554 94.6672C95.1074 94.6672 94.0194 94.9552 93.0914 95.5312C92.1634 96.0752 91.4434 96.8592 90.9314 97.8832C90.4514 98.8752 90.2114 100.059 90.2114 101.435C90.2114 102.843 90.4674 104.075 90.9794 105.131C91.5234 106.155 92.2914 106.955 93.2834 107.531C94.2754 108.075 95.4274 108.347 96.7394 108.347C97.9234 108.347 98.9954 108.155 99.9554 107.771C100.915 107.355 101.747 106.747 102.451 105.947L106.147 109.643C105.027 110.955 103.651 111.947 102.019 112.619C100.419 113.291 98.6754 113.627 96.7874 113.627ZM117.14 113.147V107.819H125.924C127.492 107.819 128.708 107.339 129.572 106.379C130.468 105.419 130.916 104.283 130.916 102.971C130.916 102.075 130.724 101.259 130.34 100.523C129.956 99.7872 129.38 99.2112 128.612 98.7952C127.876 98.3472 126.98 98.1232 125.924 98.1232H117.14V92.8432H125.204C126.548 92.8432 127.62 92.5072 128.42 91.8352C129.252 91.1632 129.668 90.1552 129.668 88.8112C129.668 87.4352 129.252 86.4112 128.42 85.7392C127.62 85.0672 126.548 84.7312 125.204 84.7312H117.14V79.4032H125.972C128.212 79.4032 130.084 79.8192 131.588 80.6512C133.124 81.4512 134.276 82.5232 135.044 83.8672C135.812 85.1792 136.196 86.6192 136.196 88.1872C136.196 90.1072 135.604 91.7712 134.42 93.1792C133.268 94.5552 131.572 95.5792 129.332 96.2512L129.62 94.1392C132.116 94.8432 134.036 96.0112 135.38 97.6432C136.756 99.2432 137.444 101.179 137.444 103.451C137.444 105.243 136.996 106.875 136.1 108.347C135.236 109.787 133.956 110.955 132.26 111.851C130.596 112.715 128.564 113.147 126.164 113.147H117.14ZM112.34 113.147V79.4032H118.82V113.147H112.34ZM151.837 113.627C149.789 113.627 147.965 113.195 146.365 112.331C144.797 111.467 143.565 110.267 142.669 108.731C141.773 107.195 141.325 105.419 141.325 103.403V89.9632H147.661V103.259C147.661 104.219 147.821 105.051 148.141 105.755C148.461 106.427 148.941 106.939 149.581 107.291C150.221 107.643 150.973 107.819 151.837 107.819C153.149 107.819 154.173 107.419 154.909 106.619C155.645 105.819 156.013 104.699 156.013 103.259V89.9632H162.301V103.403C162.301 105.451 161.853 107.243 160.957 108.779C160.093 110.315 158.861 111.515 157.261 112.379C155.693 113.211 153.885 113.627 151.837 113.627ZM177.101 113.627C174.957 113.627 173.037 113.099 171.341 112.043C169.645 110.987 168.301 109.547 167.309 107.723C166.349 105.899 165.869 103.851 165.869 101.579C165.869 99.2752 166.349 97.2112 167.309 95.3872C168.301 93.5632 169.629 92.1232 171.293 91.0672C172.989 90.0112 174.925 89.4832 177.101 89.4832C178.765 89.4832 180.253 89.8192 181.565 90.4912C182.909 91.1632 183.981 92.1072 184.781 93.3232C185.613 94.5072 186.061 95.8512 186.125 97.3552V105.611C186.061 107.115 185.629 108.475 184.829 109.691C184.029 110.907 182.957 111.867 181.613 112.571C180.269 113.275 178.765 113.627 177.101 113.627ZM178.157 107.819C179.341 107.819 180.365 107.563 181.229 107.051C182.125 106.507 182.813 105.771 183.293 104.843C183.805 103.883 184.061 102.779 184.061 101.531C184.061 100.315 183.805 99.2432 183.293 98.3152C182.813 97.3552 182.125 96.6192 181.229 96.1072C180.365 95.5632 179.357 95.2912 178.205 95.2912C177.021 95.2912 175.981 95.5632 175.085 96.1072C174.221 96.6512 173.533 97.3872 173.021 98.3152C172.541 99.2432 172.301 100.315 172.301 101.531C172.301 102.779 172.541 103.883 173.021 104.843C173.533 105.771 174.237 106.507 175.133 107.051C176.029 107.563 177.037 107.819 178.157 107.819ZM189.965 113.147H183.725V106.907L184.733 101.243L183.677 95.6752V78.4432H189.965V113.147ZM205.32 113.627C203.176 113.627 201.256 113.099 199.56 112.043C197.864 110.987 196.52 109.547 195.528 107.723C194.568 105.899 194.088 103.851 194.088 101.579C194.088 99.2752 194.568 97.2112 195.528 95.3872C196.52 93.5632 197.848 92.1232 199.512 91.0672C201.208 90.0112 203.144 89.4832 205.32 89.4832C206.984 89.4832 208.472 89.8192 209.784 90.4912C211.128 91.1632 212.2 92.1072 213 93.3232C213.832 94.5072 214.28 95.8512 214.344 97.3552V105.611C214.28 107.115 213.848 108.475 213.048 109.691C212.248 110.907 211.176 111.867 209.832 112.571C208.488 113.275 206.984 113.627 205.32 113.627ZM206.376 107.819C207.56 107.819 208.584 107.563 209.448 107.051C210.344 106.507 211.032 105.771 211.512 104.843C212.024 103.883 212.28 102.779 212.28 101.531C212.28 100.315 212.024 99.2432 211.512 98.3152C211.032 97.3552 210.344 96.6192 209.448 96.1072C208.584 95.5632 207.576 95.2912 206.424 95.2912C205.24 95.2912 204.2 95.5632 203.304 96.1072C202.44 96.6512 201.752 97.3872 201.24 98.3152C200.76 99.2432 200.52 100.315 200.52 101.531C200.52 102.779 200.76 103.883 201.24 104.843C201.752 105.771 202.456 106.507 203.352 107.051C204.248 107.563 205.256 107.819 206.376 107.819ZM218.184 113.147H211.944V106.907L212.952 101.243L211.896 95.6752V78.4432H218.184V113.147ZM231.042 113.339L221.346 89.9632H228.162L234.594 107.819H232.29L238.962 89.9632H245.826L235.506 113.291L231.042 113.339ZM224.61 122.843L231.666 107.915L235.506 113.291L231.282 122.843H224.61Z" fill="white"/>
</svg>
