<svg width="281" height="44" viewBox="0 0 281 44" fill="none" xmlns="http://www.w3.org/2000/svg">
<g clip-path="url(#clip0_32_11166)">
<path d="M41.1571 12.1276H32.6076C32.1982 12.1276 31.8056 11.9649 31.5161 11.6755C31.2266 11.386 31.064 10.9934 31.064 10.584V2.1395C31.064 1.73012 31.2266 1.33752 31.5161 1.04804C31.8056 0.758571 32.1982 0.595947 32.6076 0.595947H35.9605C36.8453 0.595665 37.7214 0.769686 38.5389 1.10807C39.3564 1.44645 40.0992 1.94257 40.7249 2.56809C41.3506 3.1936 41.847 3.93625 42.1856 4.75363C42.5243 5.57101 42.6986 6.44709 42.6986 7.33184V10.584C42.6986 10.9934 42.5359 11.386 42.2465 11.6755C41.957 11.9649 41.5665 12.1276 41.1571 12.1276ZM0.0192976 36.43V17.5793C0.0192976 17.1699 0.181921 16.7773 0.471394 16.4879C0.760866 16.1984 1.15348 16.0358 1.56285 16.0358H10.0631C10.4725 16.0358 10.8651 16.1984 11.1546 16.4879C11.444 16.7773 11.6067 17.1699 11.6067 17.5793V41.6244C11.6067 42.0338 11.444 42.4264 11.1546 42.7159C10.8651 43.0054 10.4725 43.168 10.0631 43.168H6.75734C5.87249 43.168 4.9963 42.9937 4.1788 42.6551C3.3613 42.3165 2.61851 41.8201 1.99282 41.1945C0.729196 39.9308 0.0192976 38.217 0.0192976 36.43ZM15.5384 36.43V17.5793C15.5384 17.1699 15.7011 16.7773 15.9905 16.4879C16.28 16.1984 16.6726 16.0358 17.082 16.0358H25.5823C25.785 16.0358 25.9857 16.0757 26.173 16.1533C26.3602 16.2308 26.5304 16.3445 26.6737 16.4879C26.8171 16.6312 26.9307 16.8014 27.0083 16.9886C27.0859 17.1759 27.1258 17.3766 27.1258 17.5793V41.6244C27.1258 41.8271 27.0859 42.0279 27.0083 42.2151C26.9307 42.4024 26.8171 42.5726 26.6737 42.7159C26.5304 42.8592 26.3602 42.9729 26.173 43.0505C25.9857 43.1281 25.785 43.168 25.5823 43.168H22.2765C20.4894 43.168 18.7756 42.4581 17.512 41.1945C16.2483 39.9308 15.5384 38.217 15.5384 36.43ZM31.0597 36.43V17.5793C31.0597 17.1699 31.2224 16.7773 31.5118 16.4879C31.8013 16.1984 32.1939 16.0358 32.6033 16.0358H41.1036C41.5129 16.0358 41.9055 16.1984 42.195 16.4879C42.4845 16.7773 42.6471 17.1699 42.6471 17.5793V41.6244C42.6471 42.0338 42.4845 42.4264 42.195 42.7159C41.9055 43.0054 41.5129 43.168 41.1036 43.168H37.7956C36.0086 43.168 34.2947 42.4581 33.0311 41.1945C31.7675 39.9308 31.0597 38.217 31.0597 36.43ZM20.5314 0.578796L1.54784 0.561646C1.13847 0.561646 0.74586 0.724269 0.456387 1.01374C0.166915 1.30321 0.00429079 1.69582 0.00429079 2.1052L3.13589e-06 5.49244C-0.000841816 6.35917 0.169073 7.21758 0.500042 8.01863C0.831011 8.81969 1.31655 9.54769 1.92892 10.1611C2.5413 10.7744 3.26851 11.2611 4.06903 11.5934C4.86954 11.9257 5.72767 12.097 6.59441 12.0976L25.5758 12.119C25.7791 12.1196 25.9804 12.08 26.1683 12.0025C26.3562 11.9251 26.527 11.8113 26.6708 11.6677C26.8146 11.524 26.9287 11.3534 27.0064 11.1656C27.0841 10.9778 27.124 10.7765 27.1237 10.5733V7.18606C27.1251 6.31907 26.9556 5.4603 26.6248 4.65887C26.2941 3.85745 25.8086 3.12908 25.1961 2.51543C24.5837 1.90177 23.8563 1.41487 23.0555 1.08257C22.2547 0.750264 21.3984 0.579077 20.5314 0.578796ZM62.7712 27.2265C62.7712 23.6763 65.1894 21.8755 67.5562 21.8755C70.5425 21.8755 71.6723 24.0365 71.6723 27.0743V42.8721H78.8777V27.2265C78.8777 23.6763 81.2981 21.8755 83.6649 21.8755C86.6491 21.8755 87.781 24.0365 87.781 27.0743V42.8721H94.9843V25.0141C94.9843 19.1486 91.3827 15.2876 85.8259 15.2876C81.6583 15.2876 79.0835 17.2963 77.4371 18.9942C75.945 16.6789 73.4239 15.2876 70.1288 15.2876C66.6301 15.2876 64.2118 16.8311 62.7712 18.5826V15.8021H55.5679V42.8721H62.7712V27.2265ZM106.098 43.3352C109.648 43.3352 112.375 42.2547 114.124 40.351C115.308 42.6149 118.088 43.541 122.668 42.8721V37.4697C121.072 37.6734 120.455 37.2125 120.455 35.7697V24.7075C120.455 18.4261 116.339 15.2876 109.494 15.2876C103.062 15.2876 98.9439 18.9942 97.7091 23.5734L104.554 24.8597C105.17 22.4415 106.561 21.2581 109.236 21.2581C112.221 21.2581 113.404 22.6988 113.404 25.0141V25.4257L106.664 26.712C101.208 27.6917 96.8859 29.9556 96.8859 35.358C96.8859 40.1452 100.796 43.3352 106.098 43.3352ZM113.404 33.2485C113.404 36.2842 110.574 37.8792 107.539 37.8792C105.378 37.8792 103.986 36.7987 103.986 34.9464C103.986 32.7855 105.738 32.0137 108.102 31.5506L113.404 30.4701V33.2485ZM124.569 12.6121H131.929V5.92335H124.569V12.6121ZM131.877 15.8021H124.672V42.8721H131.875L131.877 15.8021ZM135.73 42.8721H142.933V27.2265C142.933 23.6763 145.405 21.8755 147.928 21.8755C151.015 21.8755 152.25 24.0365 152.25 27.0743V42.8721H159.453V25.0141C159.453 19.1486 156.006 15.2876 150.346 15.2876C146.897 15.2876 144.429 16.8311 142.935 18.5826V15.8021H135.732L135.73 42.8721ZM160.495 38.2929C162.967 41.6373 168.112 43.4381 173.002 43.4381C179.485 43.4381 184.736 39.9394 184.736 34.2776C184.736 28.1548 179.125 27.0743 174.392 26.0946C171.047 25.4257 169.246 25.117 169.246 23.3676C169.246 21.8755 170.736 20.898 173.002 20.898C175.832 20.898 178.456 22.1842 180.257 24.4996L184.373 19.9718C182.264 17.2449 177.993 15.2876 173.208 15.2876C166.723 15.2876 162.142 18.8892 162.142 24.088C162.142 29.9042 166.98 31.034 171.354 31.9108C175.678 32.734 177.684 32.9913 177.684 35.0493C177.684 37.0045 175.575 37.8299 173.157 37.8299C170.119 37.8299 166.826 36.2327 164.974 33.7137L160.495 38.2929Z" fill="white"/>
<path d="M187.564 35.821C187.564 41.38 190.447 43.1808 195.903 43.1808C197.704 43.1808 199.247 43.0264 200.534 42.7692V36.7986C199.715 36.9045 198.89 36.9561 198.064 36.953C195.954 36.953 194.668 36.6443 194.668 34.3289V21.824H200.174V15.802H194.668V8.08426H187.564V15.802H183.962V21.824H187.564V35.821ZM210.138 43.3351C213.688 43.3351 216.415 42.2547 218.164 40.3509C219.348 42.6148 222.128 43.541 226.708 42.8721V37.4696C225.113 37.6733 224.495 37.2124 224.495 35.7696V24.7075C224.495 18.4261 220.379 15.2875 213.534 15.2875C207.102 15.2875 202.984 18.9942 201.749 23.5734L208.592 24.8597C209.21 22.4414 210.601 21.2581 213.277 21.2581C216.261 21.2581 217.444 22.6987 217.444 25.014V25.4256L210.704 26.7119C205.248 27.6917 200.926 29.9555 200.926 35.358C200.926 40.1451 204.836 43.3351 210.138 43.3351ZM217.444 33.2485C217.444 36.2841 214.614 37.8791 211.579 37.8791C209.418 37.8791 208.026 36.7986 208.026 34.9464C208.026 32.7854 209.778 32.0136 212.142 31.5506L217.444 30.4701V33.2485ZM234.22 29.3381C234.22 24.2937 236.741 21.3095 240.55 21.3095C243.535 21.3095 245.335 23.3676 246.004 26.146L252.129 23.2647C250.843 18.8913 246.725 15.2897 240.499 15.2897C232.625 15.2897 227.066 21.0008 227.066 29.3381C227.066 37.7248 232.625 43.4381 240.499 43.4381C246.776 43.4381 250.997 39.7335 252.232 35.3065L246.004 32.5281C245.335 35.3065 243.535 37.3646 240.55 37.3646C236.741 37.3646 234.22 34.4319 234.22 29.3381ZM260.846 5.92114H253.64V42.8721H260.846V34.5841L264.036 31.2911L271.499 42.8678H279.733L269.029 26.0924L278.961 15.802H270.315L260.846 26.2982V5.92114Z" fill="white"/>
</g>
<defs>
<clipPath id="clip0_32_11166">
<rect width="280.841" height="42.8765" fill="white" transform="translate(0 0.561646)"/>
</clipPath>
</defs>
</svg>
