<svg width="19" height="18" viewBox="0 0 19 18" fill="none" xmlns="http://www.w3.org/2000/svg">
<g id="vuesax/outline/arrow-right">
<g id="vuesax/outline/arrow-right_2">
<g id="arrow-right">
<path id="Vector" d="M11.6246 14.1151C11.4821 14.1151 11.3396 14.0626 11.2271 13.9501C11.0096 13.7326 11.0096 13.3726 11.2271 13.1551L15.3821 9.00009L11.2271 4.84509C11.0096 4.62759 11.0096 4.26759 11.2271 4.05009C11.4446 3.83259 11.8046 3.83259 12.0221 4.05009L16.5746 8.60259C16.7921 8.82009 16.7921 9.18009 16.5746 9.39759L12.0221 13.9501C11.9096 14.0626 11.7671 14.1151 11.6246 14.1151Z" fill="white"/>
<path id="Vector_2" d="M16.0496 9.5625H3.42706C3.11956 9.5625 2.86456 9.3075 2.86456 9C2.86456 8.6925 3.11956 8.4375 3.42706 8.4375H16.0496C16.3571 8.4375 16.6121 8.6925 16.6121 9C16.6121 9.3075 16.3571 9.5625 16.0496 9.5625Z" fill="white"/>
</g>
</g>
</g>
</svg>
