<svg width="258" height="23" viewBox="0 0 258 23" fill="none" xmlns="http://www.w3.org/2000/svg">
<path d="M11.229 11.7822V16.8445H10.2051V5.75296H11.229V10.8153H20.6426C20.6426 4.786 16.5757 0.349365 10.8877 0.349365H10.5464C4.74465 0.349365 0.734619 4.84288 0.734619 11.1281V11.4694C0.734619 17.7546 4.74465 22.2481 10.5464 22.2481H10.8877C16.5472 22.2481 20.6426 17.8115 20.6426 11.7822H11.229ZM31.3209 0.349365C25.5191 0.349365 21.5091 4.84288 21.5091 11.1281V11.4694C21.5091 17.7546 25.5191 22.2481 31.3209 22.2481H31.6622C37.4639 22.2481 41.474 17.7546 41.474 11.4694V11.1281C41.474 4.84288 37.4639 0.349365 31.6622 0.349365H31.3209ZM30.9796 16.8445V5.75296H32.0035V16.8445H30.9796ZM42.7657 0.633764V21.9637H52.4922C58.4646 21.9637 61.5077 17.5555 61.5077 11.441V11.1566C61.5077 5.04196 58.4646 0.633764 52.4922 0.633764H42.7657ZM51.0418 5.75296H52.0656V16.8445H51.0418V5.75296ZM70.1848 21.9637V15.707H73.5976V21.9637H81.1342V9.052C81.1342 4.2172 77.3233 0.349365 72.0334 0.349365H71.749C66.4592 0.349365 62.6482 4.2172 62.6482 9.052V21.9637H70.1848ZM70.1848 8.25568H73.5976V9.22264H70.1848V8.25568ZM95.493 21.9637V14.5125H100.072C103.912 14.5125 106.614 11.7254 106.614 7.80064V7.3456C106.614 3.42088 103.912 0.633764 100.072 0.633764H87.8142V21.9637H95.493ZM97.2563 8.96668C96.4884 8.96668 95.8628 8.341 95.8628 7.57312C95.8628 6.80524 96.4884 6.17956 97.2563 6.17956C98.0242 6.17956 98.6499 6.80524 98.6499 7.57312C98.6499 8.341 98.0242 8.96668 97.2563 8.96668ZM115.011 21.9637V15.707H118.424V21.9637H125.961V9.052C125.961 4.2172 122.15 0.349365 116.86 0.349365H116.576C111.286 0.349365 107.475 4.2172 107.475 9.052V21.9637H115.011ZM115.011 8.25568H118.424V9.22264H115.011V8.25568ZM139.048 21.9637C143.314 21.9637 145.447 19.6601 145.447 15.3941V0.633764H138.053V7.82908H134.64V0.633764H127.246V7.43092C127.246 12.2657 129.692 14.7684 134.526 14.7684H138.053V15.6785H127.246V21.9637H139.048ZM169.694 7.17496H170.661V21.9637H177.629V7.82908C177.629 3.27868 174.728 0.349365 170.178 0.349365C165.628 0.349365 162.727 3.27868 162.727 7.82908V15.4226H161.76V7.82908C161.76 3.27868 158.859 0.349365 154.308 0.349365C149.758 0.349365 146.857 3.27868 146.857 7.82908V21.9637H153.825V7.17496H154.792V14.7684C154.792 19.3188 157.693 22.2481 162.243 22.2481C166.794 22.2481 169.694 19.3188 169.694 14.7684V7.17496ZM184.052 0.633764C181.179 0.633764 178.762 2.653 178.762 5.80984C178.762 8.96668 181.179 10.929 184.052 10.929H185.9V11.6685H184.052C181.179 11.6685 178.762 13.6308 178.762 16.7877C178.762 19.9445 181.179 21.9637 184.052 21.9637H195.001V15.6785H186.469V14.7684H195.001V7.82908H186.469V6.919H195.001V0.633764H184.052ZM204.506 7.17496V14.6547C204.506 19.3757 207.407 22.2481 212.099 22.2481C216.792 22.2481 219.693 19.3757 219.693 14.6547V0.633764H212.583V15.4226H211.616V7.94284C211.616 3.25024 208.715 0.349365 204.023 0.349365C199.33 0.349365 196.429 3.25024 196.429 7.94284V21.9637H203.539V7.17496H204.506ZM233.078 21.9637V6.919H238.055V0.633764H220.422V6.919H225.399V21.9637H233.078ZM246.25 14.7684H250.942V15.6785H239.822V21.9637H250.317C254.583 21.9637 257.512 19.1482 257.512 14.8822C257.512 10.6162 254.583 7.82908 250.317 7.82908H245.624V6.919H256.744V0.633764H246.25C241.984 0.633764 239.054 3.44932 239.054 7.71532C239.054 11.9813 241.984 14.7684 246.25 14.7684Z" fill="white"/>
</svg>
