<svg width="25" height="24" viewBox="0 0 25 24" fill="none" xmlns="http://www.w3.org/2000/svg">
<path d="M21.6445 7.75H3.64453C3.23453 7.75 2.89453 7.41 2.89453 7C2.89453 6.59 3.23453 6.25 3.64453 6.25H21.6445C22.0545 6.25 22.3945 6.59 22.3945 7C22.3945 7.41 22.0545 7.75 21.6445 7.75Z" fill="#03071E"/>
<path d="M21.6445 12.75H3.64453C3.23453 12.75 2.89453 12.41 2.89453 12C2.89453 11.59 3.23453 11.25 3.64453 11.25H21.6445C22.0545 11.25 22.3945 11.59 22.3945 12C22.3945 12.41 22.0545 12.75 21.6445 12.75Z" fill="#03071E"/>
<path d="M21.6445 17.75H3.64453C3.23453 17.75 2.89453 17.41 2.89453 17C2.89453 16.59 3.23453 16.25 3.64453 16.25H21.6445C22.0545 16.25 22.3945 16.59 22.3945 17C22.3945 17.41 22.0545 17.75 21.6445 17.75Z" fill="#03071E"/>
</svg>
