<svg width="207" height="29" viewBox="0 0 207 29" fill="none" xmlns="http://www.w3.org/2000/svg">
<path fill-rule="evenodd" clip-rule="evenodd" d="M13.3583 26.8296C15.1032 29.543 18.9919 29.0967 20.2187 26.6936C21.0158 26.0502 22.0203 22.0156 22.4742 20.6882C23.1871 18.6017 23.9717 16.5558 24.6872 14.4975C25.9715 10.7998 28.8657 4.86788 23.6361 3.94932C23.4087 3.90945 23.1455 3.89225 22.8548 3.89538C23.1005 3.89772 23.3246 3.91492 23.522 3.94932C24.0034 4.03375 24.4156 4.16039 24.7663 4.32456C24.3707 5.56207 23.8576 6.85274 23.6294 7.58211L19.4308 19.6437C19.0427 20.4654 18.3256 21.3034 17.3303 21.0908C13.6123 20.2942 16.7106 14.0597 10.0492 11.0992C9.01645 10.6403 8.24604 10.4738 7.10915 10.0681C6.28209 9.77336 4.75042 9.4247 3.84175 8.80243C3.01303 9.07838 2.38087 9.32855 2.10685 9.52242C0.954136 10.4027 0.0787747 11.2548 0.211203 13.1552C0.42692 16.2423 3.65934 16.8427 6.70104 17.8528C9.38875 18.7447 10.5956 19.0762 11.5101 21.4683C12.0032 22.7567 12.7436 25.8774 13.3566 26.8312L13.3583 26.8296Z" fill="#E85D04"/>
<path fill-rule="evenodd" clip-rule="evenodd" d="M17.6985 21.1217C18.5622 21.1561 19.1902 20.3923 19.5442 19.6426L23.7428 7.58098C24.1767 6.19337 25.6426 2.77321 25.3669 1.55368C25.147 0.578058 24.3991 0.230179 23.1864 0.330243C22.1828 0.413108 6.33966 4.83469 5.01371 5.27403C3.67193 5.71807 2.5667 6.77734 3.36127 8.197C3.4762 8.4026 3.65777 8.58553 3.88349 8.75048C6.61868 7.85537 11.2737 6.71714 12.498 6.35988C15.0058 5.62817 21.15 3.53151 23.5212 3.94818C24.0026 4.03261 24.4149 4.15926 24.7656 4.32342C24.3699 5.56094 23.8569 6.85161 23.6287 7.58098L19.4301 19.6426C19.0919 20.3595 18.5031 21.0888 17.6977 21.1217H17.6985Z" fill="#F48C06"/>
<path fill-rule="evenodd" clip-rule="evenodd" d="M19.4303 19.6425L23.6288 7.58085C23.857 6.85148 24.3701 5.56081 24.7657 4.3233C24.4151 4.15913 24.0028 4.03249 23.5214 3.94806C21.1502 3.53139 15.006 5.62804 12.4982 6.35976C11.2622 6.72015 6.52889 7.87714 3.80536 8.77615C4.70904 9.41484 6.2707 9.76819 7.10858 10.0676C8.24546 10.4733 9.01588 10.6391 10.0487 11.0987C16.7101 14.06 13.6109 20.2937 17.3297 21.0903C18.325 21.3037 19.0421 20.4657 19.4303 19.6433V19.6425Z" fill="#DE3300"/>
<path d="M40.0084 26.6282C43.1899 26.6282 46.5734 24.9112 46.5734 21.0227C46.5734 14.8448 38.0221 16.3598 38.0221 13.818C38.0221 13.0268 38.8469 12.3703 40.1936 12.3703C42.0116 12.3703 42.9543 13.4645 43.5266 14.5082L46.7081 12.7743C45.4288 10.5018 43.2236 9.12151 40.3283 9.12151C37.0794 9.12151 34.0831 10.8048 34.0831 14.3567C34.0831 20.2988 42.5334 18.3967 42.5334 21.2247C42.5334 22.1168 41.7086 23.2278 39.8064 23.2278C37.5676 23.2278 36.6754 21.6792 36.2209 20.4672L32.9553 21.9148C33.7801 24.5072 36.4734 26.6282 40.0084 26.6282Z" fill="#03071E"/>
<path d="M56.2021 26.6282C57.4309 26.6282 58.6429 26.3588 59.2658 26.1232V22.403C58.7103 22.6723 57.7844 23.009 56.9259 23.009C55.8486 23.009 55.0574 22.5377 55.0574 20.9217V12.909H59.2658V9.47501H55.0574V2.37134L51.0174 5.30034V9.47501H48.2399V12.909H50.9501V21.6455C50.9501 24.7092 52.9196 26.6282 56.2021 26.6282Z" fill="#03071E"/>
<path d="M69.3658 9.12151C66.0496 9.12151 63.9118 10.6028 62.2958 12.808L65.4436 15.0805C66.1674 13.8517 67.4636 12.707 69.3994 12.707C72.0759 12.707 72.8166 13.7675 72.9008 16.2588H68.3389C64.5683 16.2588 61.6393 17.4708 61.6393 21.1237C61.6393 24.6418 64.2989 26.6282 67.7498 26.6282C69.6688 26.6282 71.9076 25.7865 73.0018 24.0527L73.2543 26.2915H76.6378V16.0905C76.6378 11.9832 73.9444 9.12151 69.3658 9.12151ZM68.5746 23.1605C66.7398 23.1605 65.8476 22.3693 65.8476 21.2583C65.8476 20.1978 66.7061 19.2215 68.5746 19.2215H72.9176V19.3562C72.6651 21.3425 71.0996 23.1605 68.5746 23.1605Z" fill="#03071E"/>
<path d="M81.0313 26.2915H85.0039V19.1878C85.0039 14.9122 87.0071 13.1278 88.9261 13.1278C89.5826 13.1278 90.2054 13.3298 90.7609 13.7002L92.6294 10.3335C91.8214 9.50867 90.6599 9.12151 89.5489 9.12151C87.6636 9.12151 85.7614 10.2662 85.0376 12.303V9.47501H81.0313V26.2915Z" fill="#03071E"/>
<path d="M101.484 26.6282C102.713 26.6282 103.925 26.3588 104.547 26.1232V22.403C103.992 22.6723 103.066 23.009 102.208 23.009C101.13 23.009 100.339 22.5377 100.339 20.9217V12.909H104.547V9.47501H100.339V2.37134L96.2991 5.30034V9.47501H93.5216V12.909H96.2318V21.6455C96.2318 24.7092 98.2013 26.6282 101.484 26.6282Z" fill="#03071E"/>
<path d="M116.566 26.6282C121.229 26.6282 123.771 22.5377 123.771 17.8748C123.771 13.1952 121.229 9.12151 116.499 9.12151C114.698 9.12151 112.947 9.71067 111.769 11.1583V2.506H107.527V26.2915H111.769V24.6082C112.947 26.0558 114.816 26.6282 116.566 26.6282ZM115.54 22.8407C112.712 22.8407 111.399 20.7028 111.399 17.8748C111.399 15.0468 112.712 12.8417 115.54 12.8417C118.368 12.8417 119.63 15.0805 119.63 17.8748C119.63 20.6692 118.368 22.8407 115.54 22.8407Z" fill="#03071E"/>
<path d="M132.844 26.6282C134.511 26.6282 136.463 25.9885 137.81 24.322V26.2915H141.884V9.47501H137.81V18.666C137.81 21.595 136.329 22.8407 134.023 22.8407C131.918 22.8407 130.807 21.2583 130.807 19.0532V9.47501H126.751V19.575C126.751 23.0932 128.434 26.6282 132.844 26.6282Z" fill="#03071E"/>
<path d="M152.724 26.6282C153.953 26.6282 155.165 26.3588 155.788 26.1232V22.403C155.233 22.6723 154.307 23.009 153.448 23.009C152.371 23.009 151.58 22.5377 151.58 20.9217V12.909H155.788V9.47501H151.58V2.37134L147.54 5.30034V9.47501H144.762V12.909H147.472V21.6455C147.472 24.7092 149.442 26.6282 152.724 26.6282Z" fill="#03071E"/>
<path d="M165.417 26.6282C166.646 26.6282 167.858 26.3588 168.48 26.1232V22.403C167.925 22.6723 166.999 23.009 166.141 23.009C165.063 23.009 164.272 22.5377 164.272 20.9217V12.909H168.48V9.47501H164.272V2.37134L160.232 5.30034V9.47501H157.455V12.909H160.165V21.6455C160.165 24.7092 162.134 26.6282 165.417 26.6282Z" fill="#03071E"/>
<path d="M179.136 26.6282C184.337 26.6282 187.755 22.605 187.755 17.8412C187.755 13.0942 184.337 9.12151 179.136 9.12151C173.934 9.12151 170.517 13.0942 170.517 17.8412C170.517 22.605 173.934 26.6282 179.136 26.6282ZM179.136 23.0932C176.039 23.0932 174.793 20.6018 174.793 17.8412C174.793 15.0805 176.039 12.6733 179.136 12.6733C182.25 12.6733 183.479 15.0805 183.479 17.8412C183.479 20.6018 182.25 23.0932 179.136 23.0932Z" fill="#03071E"/>
<path d="M191.088 26.2915H195.195V17.0837C195.195 14.1547 196.643 12.909 198.949 12.909C201.053 12.909 202.164 14.5082 202.164 16.7133V26.2915H206.271V16.1915C206.271 12.6733 204.537 9.12151 200.127 9.12151C198.477 9.12151 196.542 9.77801 195.195 11.4277V9.47501H191.088V26.2915Z" fill="#03071E"/>
</svg>
