<svg width="142" height="40" viewBox="0 0 142 40" fill="none" xmlns="http://www.w3.org/2000/svg">
<g id="image 1784 (traced)" clip-path="url(#clip0_5_24052)">
<g id="Red">
<path id="Vector" d="M21.7808 0.624877C20.4185 1.00765 18.9888 2.15596 18.3696 3.37183C16.9623 6.16381 18.0206 9.48493 20.7563 10.8584C22.8953 11.9279 25.3158 11.5677 27.0157 9.92399C30.1229 6.94062 28.8733 1.88577 24.7303 0.647393C23.9986 0.433491 22.5238 0.422233 21.7808 0.624877Z" fill="white"/>
<path id="Vector_2" d="M5.24275 19.4933C4.38714 19.6734 3.1375 20.3602 2.48454 21.0131C1.7978 21.6999 1.13358 22.9495 0.964706 23.8727C0.626966 25.6965 1.17861 27.464 2.48454 28.7812C3.58782 29.8844 4.84872 30.4136 6.36855 30.4136C7.87712 30.4136 9.14928 29.8844 10.2638 28.7812C13.1459 25.9329 12.0313 21.0357 8.19235 19.7072C7.44932 19.4483 5.97452 19.347 5.24275 19.4933Z" fill="white"/>
<path id="Vector_3" d="M29.4812 24.7283C28.5243 24.9872 27.7588 25.4376 27.0157 26.1806C23.8072 29.3891 25.6197 34.8155 30.1117 35.5135C32.8586 35.93 35.538 34.1287 36.2585 31.3705C37.0016 28.5223 35.189 25.4826 32.3182 24.7283C31.4964 24.5257 30.2693 24.5257 29.4812 24.7283Z" fill="white"/>
</g>
<g id="Yellow">
<path id="Vector_4" d="M31.8004 8.92218C30.213 9.16985 28.9746 10.6109 28.9634 12.2208C28.9521 13.5942 29.6614 14.7989 30.8435 15.418C31.609 15.8233 33.05 15.8571 33.8493 15.4743C35.4705 14.7313 36.2698 12.7837 35.6281 11.1062C35.0539 9.56388 33.4666 8.65198 31.8004 8.92218Z" fill="white"/>
<path id="Vector_5" d="M5.952 10.5769C4.90501 10.9484 4.06066 11.8265 3.77921 12.851C3.61034 13.4477 3.64411 14.4271 3.84675 15.0238C4.08317 15.7331 4.88249 16.5999 5.63678 16.9714C6.46987 17.3767 7.61818 17.388 8.48505 17.0165C9.2506 16.6787 10.1062 15.7556 10.3651 14.9788C10.7592 13.7967 10.4665 12.412 9.62211 11.455C8.82279 10.5431 7.16786 10.1491 5.952 10.5769Z" fill="white"/>
<path id="Vector_6" d="M19.5742 31.3818C18.9888 31.5957 18.1557 32.3162 17.7954 32.9242C17.2438 33.8811 17.2438 35.3784 17.8067 36.3466C18.1782 36.9996 19.0113 37.6863 19.6755 37.9115C20.5199 38.1929 21.6907 38.0916 22.4562 37.6638C24.8654 36.3578 24.8542 32.9129 22.4562 31.5957C21.9609 31.3255 21.6907 31.2692 20.9477 31.2355C20.3397 31.2129 19.8894 31.258 19.5742 31.3818Z" fill="white"/>
</g>
<g id="Yellow_2">
<path id="Vector_7" d="M12.2002 5.35308C11.5585 5.57824 11.2433 5.82592 10.8943 6.34379C10.6353 6.74907 10.5903 6.9292 10.5903 7.6272C10.5903 8.34771 10.6241 8.49406 10.928 8.93313C12.0201 10.4755 14.373 10.2503 15.0935 8.55035C15.6339 7.23317 14.8683 5.65705 13.5061 5.31931C12.8982 5.1617 12.7181 5.17295 12.2002 5.35308Z" fill="white"/>
<path id="Vector_8" d="M34.052 18.1873C33.399 18.4124 32.9712 18.784 32.701 19.3356C31.9242 20.9567 33.0275 22.7693 34.7838 22.7693C35.493 22.7693 36.0334 22.5666 36.4612 22.1276C37.6433 20.9455 37.3506 19.0879 35.8758 18.3336C35.2116 18.0072 34.6824 17.9621 34.052 18.1873Z" fill="white"/>
<path id="Vector_9" d="M11.4684 30.481C10.2976 31.0551 9.76846 32.4849 10.2976 33.622C11.187 35.5471 13.8889 35.457 14.6882 33.4869C14.9359 32.8789 14.8008 31.8545 14.4068 31.2916C13.7763 30.4022 12.4028 30.0194 11.4684 30.481Z" fill="white"/>
</g>
<g id="Gray">
<path id="Vector_10" d="M62.2083 10.2054C60.6321 10.5319 59.3375 11.2299 58.2004 12.3556L57.4799 13.0649V11.8378V10.5994H55.8475H54.2151V25.0659V39.5325H55.8475H57.4799V33.0929V26.6533L58.1891 27.3401C59.6639 28.7923 61.2738 29.4903 63.3341 29.5917C65.7433 29.7155 67.7022 29.1076 69.3571 27.7453C73.2186 24.5706 73.8941 18.086 70.8431 13.6391C70.3365 12.896 69.0982 11.7252 68.3664 11.2861C66.5088 10.1829 64.2572 9.78883 62.2083 10.2054ZM64.8426 13.245C65.9572 13.5377 66.7227 13.9655 67.5108 14.7536C68.7604 16.0032 69.4134 17.6694 69.4134 19.6283C69.4134 23.062 67.7697 25.5951 65.034 26.4056C64.1221 26.6758 62.3884 26.6533 61.5103 26.3493C58.9772 25.505 57.3786 22.9719 57.3448 19.7747C57.3223 17.7595 57.964 16.0933 59.2699 14.7649C60.4182 13.594 61.6003 13.0987 63.2778 13.0874C63.7844 13.0762 64.4824 13.155 64.8426 13.245Z" fill="white"/>
<path id="Vector_11" d="M81.2906 10.2617C80.0409 10.5319 78.7237 11.1736 77.7105 12.0179C75.1775 14.1119 73.8941 18.086 74.5358 21.7786C75.1775 25.4487 77.4066 28.1844 80.6489 29.2652C81.4257 29.5241 81.7071 29.5579 83.2044 29.5579C84.7806 29.5691 84.9607 29.5466 85.8951 29.2427C87.0772 28.8486 88.248 28.1169 89.0924 27.2162L89.6778 26.597V27.8917V29.1751H91.3102H92.9426V19.8873V10.5994H91.3102H89.6778V11.8491V13.1099L88.8447 12.3106C87.3136 10.8583 85.6474 10.1604 83.5422 10.0815C82.6078 10.0478 82.0561 10.0928 81.2906 10.2617ZM85.2309 13.245C86.2216 13.504 87.0096 13.9205 87.7301 14.5735C88.5069 15.294 88.991 16.0258 89.3963 17.1291C89.8354 18.3337 89.9255 20.3826 89.5877 21.7223C88.9685 24.1653 87.5275 25.7865 85.411 26.4056C84.6567 26.6308 82.968 26.6421 82.18 26.4282C80.1535 25.8878 78.5661 24.1428 77.9695 21.7899C77.6542 20.5853 77.6655 18.829 77.9807 17.692C78.5886 15.4741 80.176 13.8079 82.2137 13.245C82.9568 13.0424 84.4316 13.0424 85.2309 13.245Z" fill="white"/>
<path id="Vector_12" d="M103.356 10.104C103.232 10.1265 102.861 10.2053 102.534 10.2728C100.114 10.7569 97.9411 12.5357 96.6803 15.0462C94.2373 19.921 95.9823 26.3605 100.362 28.6572C101.758 29.3889 102.591 29.5691 104.426 29.5578C105.878 29.5578 106.159 29.524 106.959 29.2538C108.152 28.8598 109.402 28.1055 110.212 27.3062L110.877 26.642L110.809 28.9499C110.764 30.8187 110.708 31.4266 110.516 32.1584C109.74 35.0742 108.04 36.3802 105.045 36.3802C103.165 36.3802 101.746 35.851 100.654 34.7477C99.81 33.8921 99.1345 32.3273 99.1345 31.2352V30.8637H97.4908H95.8359L95.9147 31.6518C96.365 36.1775 99.6411 39.1721 104.392 39.386C105.946 39.4648 107.049 39.3185 108.276 38.9019C110.955 37.9901 112.982 35.851 113.691 33.1716C114.074 31.7531 114.108 30.6273 114.108 20.5964V10.5993H112.475H110.843V11.8264V13.0423L110.077 12.2993C108.591 10.8583 106.948 10.1603 104.82 10.0927C104.144 10.0702 103.48 10.0702 103.356 10.104ZM106.43 13.245C109.458 13.9655 111.361 17.0502 110.955 20.6077C110.741 22.454 110.134 23.8725 109.075 24.9308C107.938 26.0903 106.689 26.5857 104.932 26.5857C102.996 26.5857 101.521 25.8652 100.407 24.3904C97.4458 20.4726 99.0669 14.4383 103.401 13.245C104.111 13.0423 105.574 13.0423 106.43 13.245Z" fill="white"/>
<path id="Vector_13" d="M124.443 10.149C122.551 10.4755 120.851 11.3649 119.624 12.6933C118.577 13.8191 117.958 14.9562 117.418 16.735C117.125 17.6694 117.102 17.8945 117.102 19.7746C117.091 21.9362 117.159 22.3752 117.789 24.0414C118.194 25.1222 119.264 26.6645 120.164 27.4864C121.121 28.3532 122.799 29.2088 124.037 29.4565C125.85 29.8168 127.921 29.5916 129.396 28.8936C130.319 28.4546 131.411 27.6552 131.873 27.0811L132.177 26.6983L132.233 27.9029L132.289 29.1188L133.899 29.1525L135.498 29.1863V19.8872V10.5994H133.865H132.233V11.8265V13.0536L131.513 12.3443C130.758 11.6013 129.599 10.847 128.743 10.5431C127.493 10.0927 125.737 9.93513 124.443 10.149ZM127.876 13.245C129.993 13.7966 131.49 15.3165 132.188 17.6469C132.346 18.131 132.391 18.6826 132.391 19.7183C132.391 22.0037 131.805 23.6361 130.488 24.9533C129.328 26.1129 128.135 26.5857 126.323 26.5857C124.623 26.5857 123.452 26.1016 122.326 24.9533C121.02 23.6361 120.367 21.8799 120.367 19.7183C120.356 18.1873 120.615 17.174 121.313 16.0032C122.078 14.6973 123.249 13.7516 124.69 13.29C125.467 13.0423 126.998 13.0198 127.876 13.245Z" fill="white"/>
<path id="Vector_14" d="M138.819 10.6107C137.389 11.061 137.209 13.0424 138.538 13.7179C139.145 14.0331 139.461 14.0331 140.08 13.7517C140.935 13.3689 141.262 12.3444 140.834 11.4325C140.519 10.7683 139.562 10.3743 138.819 10.6107ZM140.001 11.1061C140.609 11.4213 140.845 12.2093 140.508 12.8511C140.26 13.3239 139.911 13.5265 139.314 13.5265C138.887 13.5265 138.718 13.459 138.447 13.2113C137.299 12.1418 138.605 10.3856 140.001 11.1061Z" fill="white"/>
<path id="Vector_15" d="M138.65 12.2318C138.65 13.0086 138.684 13.1887 138.819 13.1887C138.932 13.1887 138.988 13.0649 138.988 12.7947C138.988 12.5358 139.044 12.4007 139.134 12.4007C139.224 12.4007 139.382 12.5808 139.506 12.7947C139.618 13.0199 139.798 13.1887 139.911 13.1887C140.159 13.1887 140.159 13.1324 139.922 12.7159C139.731 12.4007 139.731 12.3781 139.922 12.2768C140.147 12.153 140.181 11.6126 139.979 11.41C139.9 11.3312 139.573 11.2749 139.247 11.2749H138.65V12.2318ZM139.72 11.7364C139.821 11.8941 139.776 11.9278 139.348 12.0066C139.044 12.0517 138.988 12.0291 138.988 11.8378C138.988 11.6689 139.067 11.6126 139.314 11.6126C139.506 11.6126 139.686 11.6689 139.72 11.7364Z" fill="white"/>
</g>
</g>
<defs>
<clipPath id="clip0_5_24052">
<rect width="140.162" height="39.0653" fill="white" transform="translate(0.852112 0.467285)"/>
</clipPath>
</defs>
</svg>
