<svg width="187" height="34" viewBox="0 0 187 34" fill="none" xmlns="http://www.w3.org/2000/svg">
<g id="Group 27159">
<path id="Vector" d="M26.9573 3.57007H2.04902C1.21255 3.57007 0.5 4.28261 0.5 5.15007V7.96929C0.5 8.83675 1.21255 9.5493 2.04902 9.5493H26.9573C27.8248 9.5493 28.5064 8.83675 28.5373 7.96929V5.18105C28.5373 4.28261 27.8248 3.57007 26.9573 3.57007ZM26.9573 19.2152H2.04902C1.64628 19.2152 1.24353 19.3701 0.964707 19.6799C0.654902 19.9897 0.5 20.3615 0.5 20.7952V23.6144C0.5 24.4819 1.21255 25.1945 2.04902 25.1945H26.9573C27.8248 25.1945 28.5064 24.5129 28.5373 23.6144V20.7952C28.5064 19.8968 27.8248 19.2152 26.9573 19.2152ZM16.0832 27.0223H2.04902C1.64628 27.0223 1.24353 27.1772 0.964707 27.487C0.685883 27.7968 0.5 28.1686 0.5 28.6023V31.4215C0.5 32.289 1.21255 33.0015 2.04902 33.0015H16.0522C16.9197 33.0015 17.6012 32.289 17.6012 31.4525V28.6333C17.6322 27.7039 16.9506 27.0223 16.0832 27.0223ZM28.5373 11.3771H2.04902C1.64628 11.3771 1.24353 11.5321 0.964707 11.8419C0.685883 12.1517 0.5 12.5234 0.5 12.9572V15.7764C0.5 16.6438 1.21255 17.3564 2.04902 17.3564H28.5064C29.3738 17.3564 30.0554 16.6438 30.0554 15.7764V12.9572C30.0864 12.1207 29.3738 11.4081 28.5373 11.3771Z" fill="#2DBDEF"/>
<path id="Vector_2" d="M57.5041 9.88997C56.7296 9.08448 55.8312 8.46487 54.8088 8.03114C53.7865 7.59741 52.7022 7.38055 51.5869 7.38055C50.5026 7.34957 49.4492 7.59741 48.4578 8.06212C47.8072 8.37193 47.2186 8.80564 46.7229 9.33231V8.83663C46.7229 8.58879 46.63 8.34094 46.4751 8.15506C46.3202 7.96918 46.0723 7.84525 45.7935 7.84525H42.3547C42.1068 7.84525 41.859 7.9382 41.7041 8.15506C41.5182 8.34094 41.4253 8.58879 41.4562 8.83663V32.01C41.4562 32.2579 41.5492 32.5057 41.7041 32.6916C41.89 32.8775 42.1068 32.9704 42.3547 32.9704H45.8865C46.1343 32.9704 46.3512 32.8775 46.537 32.6916C46.7229 32.5367 46.8469 32.2889 46.8159 32.01V24.079C47.3116 24.6367 47.9621 25.0394 48.6747 25.2873C49.6041 25.6281 50.5645 25.8139 51.5559 25.8139C52.6712 25.8139 53.7865 25.5971 54.8088 25.1633C55.8312 24.7296 56.7606 24.11 57.5351 23.3045C58.3406 22.468 58.9602 21.4767 59.394 20.3924C59.8896 19.1841 60.1065 17.8829 60.0755 16.5818C60.1065 15.2806 59.8587 13.9794 59.394 12.7402C58.9292 11.7178 58.3096 10.7264 57.5041 9.88997ZM54.3441 18.2857C54.1582 18.7814 53.8794 19.2151 53.5077 19.6178C52.7951 20.3924 51.7728 20.8261 50.7194 20.8261C50.1927 20.8261 49.6661 20.7331 49.1704 20.4853C48.7057 20.2684 48.272 19.9896 47.9002 19.6178C47.5284 19.2461 47.2496 18.7814 47.0637 18.2857C46.661 17.2323 46.661 16.0861 47.0637 15.0327C47.2496 14.537 47.5594 14.1033 47.9002 13.7315C48.272 13.3598 48.7057 13.05 49.1704 12.8331C49.6661 12.6163 50.1927 12.4923 50.7194 12.4923C51.2771 12.4923 51.7728 12.5853 52.2994 12.8331C52.7641 13.05 53.1979 13.3288 53.5386 13.7006C53.9104 14.0723 54.1583 14.5061 54.3751 15.0017C54.7469 16.0861 54.7159 17.2323 54.3441 18.2857ZM79.0046 7.87624H75.5038C75.256 7.87624 75.0081 7.96918 74.8532 8.15506C74.6673 8.34094 74.5744 8.58878 74.5744 8.86761V9.30134C74.1407 8.77467 73.583 8.37192 72.9944 8.09309C72.034 7.62839 70.9807 7.41153 69.9273 7.41153C67.6657 7.41153 65.5281 8.30996 63.9171 9.88997C63.0806 10.7264 62.43 11.7178 61.9963 12.8021C61.5006 14.0104 61.2528 15.3116 61.2838 16.6437C61.2528 17.9449 61.5006 19.2461 61.9963 20.4853C62.461 21.5696 63.0806 22.561 63.9171 23.3975C65.4971 25.0084 67.6657 25.9069 69.8963 25.9069C70.9497 25.9379 72.003 25.69 72.9634 25.2253C73.552 24.9155 74.1407 24.5128 74.5744 24.0171V24.4818C74.5744 24.7296 74.6673 24.9775 74.8532 25.1633C75.0391 25.3182 75.256 25.4422 75.5038 25.4422H79.0046C79.2525 25.4422 79.5003 25.3492 79.6552 25.1633C79.8411 24.9775 79.934 24.7296 79.934 24.4818V8.89859C79.934 8.65074 79.8411 8.40291 79.6862 8.21702C79.5003 8.00016 79.2525 7.87624 79.0046 7.87624ZM74.2646 18.2857C74.0787 18.7814 73.7999 19.2151 73.4281 19.6178C73.0564 19.9896 72.6536 20.2994 72.1889 20.5163C71.1975 20.981 70.0512 20.981 69.0599 20.5163C68.5952 20.2994 68.1614 19.9896 67.7897 19.6178C67.4179 19.2461 67.1391 18.7814 66.9532 18.2857C66.5814 17.2323 66.5814 16.0861 66.9532 15.0327C67.1391 14.537 67.4179 14.1343 67.7897 13.7315C68.1614 13.3598 68.5642 13.05 69.0599 12.8331C70.0512 12.3684 71.1975 12.3684 72.1579 12.8331C72.6226 13.05 73.0564 13.3288 73.3971 13.7006C73.7379 14.0723 74.0167 14.5061 74.2336 15.0017C74.6673 16.0861 74.6673 17.2323 74.2646 18.2857ZM113.889 16.179C113.393 15.7453 112.804 15.3735 112.185 15.1257C111.534 14.8468 110.822 14.661 110.14 14.5061L107.476 13.9794C106.794 13.8555 106.298 13.6696 106.051 13.4527C105.834 13.2978 105.679 13.05 105.679 12.7711C105.679 12.4923 105.834 12.2445 106.174 12.0276C106.639 11.7798 107.135 11.6559 107.662 11.6868C108.343 11.6868 109.025 11.8417 109.644 12.0896C110.264 12.3684 110.853 12.6472 111.41 13.019C112.185 13.5147 112.866 13.4217 113.331 12.8641L114.601 11.408C114.849 11.1602 114.973 10.8504 115.004 10.5096C114.973 10.1378 114.787 9.82801 114.508 9.58016C113.982 9.11546 113.114 8.61976 111.968 8.12408C110.822 7.62839 109.365 7.38055 107.662 7.38055C106.608 7.34957 105.586 7.50447 104.594 7.81427C103.758 8.0931 102.953 8.49584 102.24 9.02251C101.589 9.5182 101.094 10.1378 100.722 10.8813C100.381 11.5939 100.195 12.3684 100.195 13.1429C100.195 14.599 100.629 15.7763 101.496 16.6437C102.364 17.5112 103.51 18.0998 104.935 18.3786L107.724 18.9982C108.312 19.0912 108.932 19.2771 109.489 19.5559C109.799 19.6798 109.985 19.9896 109.985 20.3304C109.985 20.6402 109.83 20.919 109.489 21.1669C109.149 21.4147 108.591 21.5696 107.847 21.5696C107.104 21.5696 106.329 21.4147 105.648 21.0739C104.997 20.7641 104.409 20.3614 103.851 19.8967C103.603 19.7108 103.355 19.5559 103.045 19.432C102.736 19.339 102.333 19.432 101.93 19.7727L100.412 20.919C99.9784 21.2288 99.7615 21.7555 99.8855 22.2512C99.9784 22.7779 100.381 23.2735 101.156 23.8622C103.076 25.1634 105.369 25.8449 107.693 25.783C108.777 25.783 109.861 25.659 110.884 25.3492C111.782 25.0704 112.618 24.6677 113.362 24.11C114.044 23.6143 114.601 22.9637 114.973 22.1892C115.345 21.4457 115.531 20.6402 115.531 19.8037C115.562 19.0602 115.407 18.3167 115.097 17.6351C114.787 17.1394 114.384 16.6127 113.889 16.179ZM129.193 20.4233C129.038 20.1445 128.759 19.9586 128.418 19.8967C128.109 19.8967 127.768 19.9896 127.52 20.1755C127.086 20.4543 126.591 20.6092 126.095 20.6402C125.94 20.6402 125.754 20.6092 125.599 20.5782C125.413 20.5473 125.258 20.4543 125.135 20.3304C124.98 20.1755 124.856 19.9896 124.763 19.8037C124.639 19.4939 124.577 19.1841 124.608 18.8743V12.5233H129.131C129.41 12.5233 129.658 12.3994 129.844 12.2135C130.029 12.0276 130.153 11.8108 130.153 11.5319V8.83663C130.153 8.55781 130.06 8.30996 129.844 8.15506C129.658 7.96918 129.41 7.87624 129.162 7.87624H124.608V3.53897C124.608 3.29112 124.515 3.0123 124.329 2.85739C124.143 2.70249 123.926 2.60955 123.678 2.57857H120.147C119.899 2.57857 119.651 2.67151 119.465 2.85739C119.279 3.04328 119.155 3.29112 119.155 3.53897V7.87624H117.142C116.894 7.87624 116.646 7.96918 116.46 8.18604C116.305 8.37192 116.212 8.61976 116.212 8.86761V11.5629C116.212 11.8108 116.305 12.0586 116.46 12.2445C116.615 12.4614 116.863 12.5543 117.142 12.5543H119.155V20.1135C119.124 21.012 119.31 21.9104 119.682 22.7159C120.023 23.3975 120.457 23.9861 121.045 24.4818C121.603 24.9465 122.253 25.2873 122.966 25.4732C123.678 25.69 124.422 25.8139 125.166 25.8139C126.126 25.8139 127.117 25.659 128.047 25.3492C128.914 25.0704 129.689 24.5747 130.308 23.9241C130.711 23.5214 130.742 22.8708 130.432 22.4061L129.193 20.4233ZM148.339 7.87624H144.838C144.59 7.87624 144.373 7.96918 144.188 8.15506C144.002 8.34094 143.909 8.58878 143.909 8.86761V9.30134C143.475 8.77467 142.948 8.37192 142.329 8.09309C141.368 7.62839 140.315 7.41153 139.262 7.41153C137 7.41153 134.862 8.30996 133.251 9.88997C132.415 10.7264 131.764 11.7178 131.331 12.8021C130.835 14.0104 130.587 15.3115 130.618 16.6127C130.587 17.9139 130.835 19.2151 131.331 20.4543C131.764 21.5386 132.446 22.53 133.251 23.3665C134.831 24.9775 136.969 25.8759 139.231 25.8759C140.284 25.9069 141.337 25.659 142.298 25.2253C142.917 24.9155 143.475 24.5128 143.909 24.0171V24.4818C143.909 24.7296 144.002 24.9775 144.188 25.1324C144.373 25.3182 144.59 25.4112 144.838 25.4112H148.339C148.866 25.4112 149.268 25.0084 149.268 24.4818V8.89859C149.268 8.65074 149.175 8.40291 149.021 8.21702C148.866 8.00016 148.618 7.87624 148.339 7.87624ZM143.63 18.3167C143.444 18.8123 143.165 19.2461 142.793 19.6488C142.422 20.0206 142.019 20.3304 141.554 20.5473C141.059 20.7641 140.532 20.888 139.974 20.888C139.417 20.888 138.921 20.7641 138.425 20.5473C137.96 20.3304 137.527 20.0206 137.155 19.6488C136.783 19.2771 136.504 18.8123 136.35 18.3167C135.978 17.2633 135.978 16.117 136.35 15.0637C136.535 14.568 136.814 14.1343 137.155 13.7625C137.527 13.3908 137.96 13.081 138.425 12.8641C138.921 12.6472 139.448 12.5233 139.974 12.5233C140.501 12.5233 141.028 12.6163 141.554 12.8641C142.019 13.081 142.422 13.3598 142.793 13.7315C143.165 14.1033 143.444 14.537 143.63 15.0327C144.033 16.0551 144.033 17.2633 143.63 18.3167ZM167.547 20.2065L165.533 18.6574C165.161 18.3476 164.79 18.2547 164.48 18.3786C164.201 18.5025 163.953 18.6884 163.736 18.9053C163.303 19.432 162.776 19.8967 162.218 20.2994C161.599 20.6402 160.948 20.8261 160.266 20.7641C159.461 20.7641 158.717 20.5473 158.067 20.0825C157.416 19.6178 156.921 18.9982 156.673 18.2237C156.487 17.6971 156.394 17.1704 156.394 16.6437C156.394 16.0861 156.487 15.5594 156.673 15.0017C156.859 14.5061 157.106 14.0723 157.478 13.7006C157.85 13.3288 158.253 13.019 158.717 12.8331C159.213 12.6163 159.74 12.4923 160.297 12.4923C160.979 12.4613 161.661 12.6472 162.249 12.988C162.838 13.3598 163.334 13.8245 163.767 14.3821C163.953 14.599 164.201 14.7849 164.48 14.9088C164.79 15.0327 165.161 14.9398 165.533 14.63L167.547 13.1119C167.795 12.957 167.981 12.7092 168.074 12.4304C168.197 12.1206 168.166 11.7798 167.981 11.5009C167.206 10.2927 166.153 9.30133 164.883 8.58878C163.55 7.84525 161.97 7.44251 160.204 7.44251C158.965 7.44251 157.726 7.69035 156.549 8.15506C155.433 8.61977 154.442 9.27035 153.606 10.1068C152.769 10.9433 152.088 11.9347 151.623 13.05C150.662 15.3735 150.662 17.9759 151.623 20.2994C152.088 21.3837 152.738 22.4061 153.606 23.2116C155.372 24.9465 157.726 25.8759 160.204 25.8759C161.97 25.8759 163.55 25.4732 164.883 24.7296C166.153 24.0171 167.237 23.0257 168.012 21.7865C168.166 21.5077 168.197 21.1669 168.105 20.888C167.981 20.6402 167.795 20.3924 167.547 20.2065ZM186.197 23.8312L180.652 15.7143L185.392 9.45624C185.608 9.17742 185.701 8.77467 185.577 8.43388C185.485 8.18604 185.268 7.93819 184.679 7.93819H180.93C180.714 7.93819 180.497 8.00015 180.311 8.09309C180.063 8.21702 179.877 8.4029 179.753 8.61977L175.974 13.9174H175.075V1.40132C175.075 1.15347 174.982 0.905623 174.796 0.719741C174.61 0.533858 174.394 0.440918 174.146 0.440918H170.645C170.397 0.440918 170.149 0.533858 169.963 0.719741C169.777 0.905623 169.685 1.12249 169.685 1.40132V24.4818C169.685 24.7606 169.777 24.9775 169.963 25.1633C170.149 25.3492 170.397 25.4422 170.645 25.4422H174.146C174.394 25.4422 174.641 25.3492 174.796 25.1633C174.982 24.9775 175.075 24.7296 175.075 24.4818V18.3786H176.066L180.187 24.6986C180.435 25.1633 180.899 25.4422 181.395 25.4422H185.33C185.918 25.4422 186.166 25.1634 186.29 24.9155C186.445 24.5128 186.414 24.11 186.197 23.8312ZM98.8941 7.90722H94.9596C94.6498 7.90722 94.3709 8.00016 94.1541 8.21702C93.9682 8.40291 93.8443 8.61976 93.7823 8.86761L90.8701 19.6488H90.1576L87.0595 8.86761C86.9976 8.65074 86.9046 8.43389 86.7497 8.21702C86.5638 8.00016 86.316 7.87624 86.0372 7.87624H82.0407C81.514 7.87624 81.2042 8.03113 81.0493 8.4029C80.9564 8.7127 80.9564 9.05349 81.0493 9.3633L86.0062 24.5437C86.0991 24.7606 86.1921 25.0084 86.378 25.1633C86.5639 25.3492 86.8427 25.4422 87.1215 25.4422H89.2282L89.0423 25.9379L88.5776 27.332C88.4227 27.7657 88.1748 28.1375 87.8031 28.4163C87.4623 28.6641 87.0595 28.819 86.6258 28.7881C86.254 28.7881 85.9133 28.6951 85.5725 28.5712C85.2317 28.4163 84.9219 28.2304 84.6431 28.0136C84.3952 27.8277 84.0854 27.7347 83.7446 27.7347H83.7136C83.3419 27.7657 83.0011 27.9516 82.8152 28.2924L81.576 30.1202C81.0803 30.9257 81.3591 31.4214 81.6689 31.7002C82.3505 32.3198 83.125 32.7845 83.9925 33.0634C84.9529 33.4042 85.9442 33.5591 86.9356 33.5591C88.7325 33.5591 90.2196 33.0634 91.3658 32.103C92.5431 31.0496 93.4415 29.6865 93.8752 28.1375L99.6376 9.3633C99.7615 9.02251 99.7925 8.68173 99.6686 8.37193C99.6376 8.15506 99.4208 7.87624 98.8941 7.90722Z" fill="white"/>
</g>
</svg>
