<svg width="48" height="48" viewBox="0 0 48 48" fill="none" xmlns="http://www.w3.org/2000/svg">
<rect width="48" height="48" fill="#F5F5F5"/>
<g id="Logo">
<g id="Logo_2">
<path id="Vector" fill-rule="evenodd" clip-rule="evenodd" d="M23.9077 41.5815C26.3541 45.4508 31.8062 44.8143 33.5263 41.3875C34.6438 40.4701 36.0521 34.7168 36.6885 32.8239C37.6881 29.8486 38.7881 26.9313 39.7912 23.9961C41.5918 18.7233 45.6497 10.2645 38.3175 8.95463C37.9987 8.89778 37.6297 8.87325 37.2222 8.87771C37.5667 8.88105 37.8808 8.90558 38.1575 8.95463C38.8325 9.07502 39.4105 9.25561 39.9021 9.48971C39.3475 11.2544 38.6281 13.0949 38.3082 14.1349L32.4216 31.3346C31.8775 32.5062 30.8721 33.7012 29.4766 33.398C24.2639 32.2621 28.6078 23.3719 19.2683 19.1502C17.8203 18.4959 16.7402 18.2584 15.1462 17.6799C13.9867 17.2596 11.8392 16.7624 10.5652 15.8751C9.40333 16.2686 8.51702 16.6253 8.13284 16.9018C6.5167 18.157 5.28941 19.3721 5.47508 22.0821C5.77752 26.4843 10.3095 27.3404 14.574 28.7807C18.3423 30.0526 20.0344 30.5253 21.3165 33.9365C22.0078 35.7736 23.0459 40.2237 23.9054 41.5837L23.9077 41.5815Z" fill="#E85D04"/>
<path id="Vector_2" fill-rule="evenodd" clip-rule="evenodd" d="M29.9929 33.4423C31.2038 33.4913 32.0843 32.4022 32.5806 31.3332L38.4671 14.1335C39.0755 12.1548 41.1307 7.2777 40.7442 5.53867C40.4359 4.14745 39.3873 3.65138 37.6871 3.79407C36.28 3.91223 14.0674 10.2173 12.2084 10.8438C10.3272 11.477 8.77758 12.9875 9.89159 15.0119C10.0527 15.3051 10.3073 15.566 10.6238 15.8012C14.4586 14.5248 20.985 12.9017 22.7016 12.3922C26.2176 11.3488 34.832 8.35902 38.1565 8.95319C38.8315 9.07358 39.4095 9.25418 39.9011 9.48828C39.3464 11.2529 38.6271 13.0934 38.3072 14.1335L32.4206 31.3332C31.9465 32.3554 31.1209 33.3955 29.9917 33.4423H29.9929Z" fill="#F48C06"/>
<path id="Vector_3" fill-rule="evenodd" clip-rule="evenodd" d="M32.4209 31.3328L38.3074 14.1332C38.6274 13.0931 39.3467 11.2526 39.9014 9.48795C39.4098 9.25385 38.8318 9.07326 38.1568 8.95286C34.8323 8.3587 26.2179 11.3485 22.7019 12.3919C20.969 12.9058 14.3328 14.5557 10.5143 15.8376C11.7813 16.7484 13.9708 17.2523 15.1455 17.6792C16.7395 18.2578 17.8196 18.4941 19.2676 19.1496C28.6071 23.3723 24.262 32.2614 29.4759 33.3974C30.8713 33.7017 31.8767 32.5067 32.4209 31.334V31.3328Z" fill="#DE3300"/>
</g>
</g>
</svg>
