<svg width="227" height="55" viewBox="0 0 227 55" fill="none" xmlns="http://www.w3.org/2000/svg">
<g id="1Logo 3" clip-path="url(#clip0_5_24074)">
<path id="Vector" d="M212.895 29.8495V35.0359H209.06V29.7703L201.181 19.437L205.944 19.4144L211.051 26.1958L216.051 19.4144L220.79 19.437L212.895 29.8495ZM197.884 35.0811L196.346 31.9704L194.903 29.018L191.651 22.3724L188.354 29.018L186.912 31.9704L185.436 35.0811H181.075L188.688 19.3918H194.457L202.188 35.0811H197.89H197.884ZM178.366 29.1651C178.134 29.7646 177.823 30.2227 177.432 30.5338C177.042 30.8449 176.624 31.0485 176.183 31.1447C175.736 31.2408 175.119 31.286 174.322 31.286H166.223V35.149H162.377V19.6293H174.288C175.385 19.6293 176.222 19.7933 176.793 20.1157C177.365 20.4381 177.777 20.7944 178.026 21.1734C178.281 21.558 178.462 21.9822 178.569 22.4572C178.677 22.9267 178.745 23.5319 178.767 24.2728C178.79 25.0137 178.79 25.7659 178.773 26.5238C178.739 27.6833 178.609 28.5656 178.377 29.1651H178.366ZM175.232 25.3926C175.198 24.6348 175.051 24.0692 174.786 23.7072C174.52 23.3452 174.067 23.1586 173.422 23.1586H166.211V27.7851H173.422C174.107 27.7851 174.588 27.6154 174.865 27.2704C175.142 26.931 175.266 26.3032 175.232 25.3926ZM151.223 35.0302H147.388V29.7646L139.51 19.4314L144.272 19.4087L149.379 26.1901L154.379 19.4087L159.119 19.4314L151.229 29.8438V35.0302H151.223ZM135.556 35.0755L134.018 31.9648L132.576 29.0124L129.324 22.3667L126.026 29.0124L124.584 31.9648L123.108 35.0755H118.747L126.36 19.3861H132.129L139.861 35.0755H135.562H135.556ZM114.901 33.8368C114.579 34.2214 114.16 34.5382 113.646 34.7927C113.131 35.0472 112.3 35.1773 111.157 35.1773H97.6339V19.5105H111.084C111.875 19.5105 112.605 19.6463 113.284 19.9178C113.962 20.1892 114.46 20.5173 114.794 20.9132C115.122 21.3091 115.416 21.869 115.665 22.5873C115.919 23.3113 116.044 23.9221 116.044 24.4198V29.5949C116.044 30.5282 115.936 31.3765 115.716 32.1288C115.495 32.8867 115.224 33.4522 114.901 33.8368ZM111.904 26.5408C111.904 25.7885 111.881 25.2116 111.841 24.8101C111.802 24.4085 111.638 24.0183 111.349 23.6506C111.061 23.2773 110.569 23.0907 109.879 23.0907H101.446V31.6254H109.879C110.422 31.6254 110.857 31.484 111.174 31.1956C111.491 30.9128 111.694 30.6696 111.779 30.4773C111.864 30.285 111.909 29.7477 111.909 28.8767V26.5408H111.904ZM93.556 33.2939C93.2336 33.6785 92.9056 33.9839 92.5662 34.2101C92.2268 34.4364 91.8366 34.64 91.4011 34.8153C90.9599 34.9906 90.2586 35.0755 89.2858 35.0755H80.6945C80.1403 35.0755 79.5294 34.9567 78.8564 34.7248C78.1833 34.4873 77.5612 34.08 76.9786 33.4975C76.4017 32.9149 76.1076 32.2645 76.0963 31.5462L75.8644 28.9502V24.5725C75.8644 24.0126 75.9662 23.3905 76.1642 22.7231C76.3621 22.05 76.611 21.5127 76.9051 21.1111C77.1992 20.7096 77.6291 20.342 78.2003 20.0083C78.7715 19.6746 79.5747 19.5049 80.621 19.5049H89.2462C90.564 19.5049 91.5142 19.6915 92.0854 20.0705C92.6623 20.4438 93.0922 20.8397 93.3863 21.2582C93.6804 21.6711 93.9123 22.1858 94.0876 22.7909C94.263 23.3961 94.3478 24.1483 94.3478 25.0476V29.1368C94.3478 29.8834 94.2969 30.6639 94.1894 31.4897C94.082 32.3154 93.8671 32.9206 93.5503 33.2995L93.556 33.2939ZM90.5075 25.5171C90.5075 25.0703 90.4396 24.6857 90.3095 24.3746C90.1794 24.0579 90.0097 23.809 89.8061 23.6167C89.6025 23.4244 89.2745 23.2773 88.822 23.1586C88.3696 23.0455 87.934 22.9889 87.5212 22.9889H82.4988C81.9275 23.0115 81.4751 23.0681 81.1414 23.1529C80.8077 23.2378 80.5362 23.3905 80.3213 23.6054C80.112 23.8203 79.9536 24.0748 79.8575 24.3802C79.7613 24.6857 79.7104 25.0476 79.7104 25.4718V28.888C79.7104 29.6345 79.767 30.1662 79.8858 30.4886C80.0045 30.811 80.1572 31.0428 80.3495 31.1842C80.5418 31.3256 80.7907 31.4274 81.0961 31.484C81.4015 31.5462 81.8879 31.5745 82.5553 31.5745H87.6399C87.9001 31.5745 88.2847 31.5462 88.7937 31.4897C89.3028 31.4331 89.6365 31.3426 89.7948 31.2182C89.9532 31.0937 90.1116 30.8279 90.2643 30.432C90.417 30.0361 90.4962 29.5554 90.4962 29.0011V25.5171H90.5075ZM66.4361 35.1094H62.6467V23.0341H56.5497V19.5388H72.6632V23.0341H66.4304V35.1094H66.4361Z" fill="white"/>
<path id="Vector_2" d="M23.87 47.1734C10.9634 47.1734 0.5 36.7101 0.5 23.8034C0.5 10.8967 10.9634 0.43335 23.87 0.43335C36.7767 0.43335 47.2401 10.8967 47.2401 23.8034C47.2401 36.7101 36.7767 47.1734 23.87 47.1734ZM6.19546 14.392V26.3033L18.4065 14.392H6.19546ZM35.6229 14.392H18.6327V37.4453H30.1254V26.2354H35.6229C38.892 26.2354 41.5446 23.5828 41.5446 20.3137C41.5446 17.0446 38.892 14.392 35.6229 14.392Z" fill="#2563EB"/>
<path id="Vector_3" d="M132.689 35.0756L131.857 33.3958L131.083 31.8065L129.329 28.2263L127.548 31.8065L126.773 33.3958L125.975 35.0756H132.689Z" fill="#2563EB"/>
<path id="Vector_4" d="M194.762 35.0756L193.931 33.3958L193.156 31.8065L191.402 28.2263L189.621 31.8065L188.846 33.3958L188.049 35.0756H194.762Z" fill="#2563EB"/>
</g>
<defs>
<clipPath id="clip0_5_24074">
<rect width="226.235" height="53.7307" fill="white" transform="translate(0.5 0.43335)"/>
</clipPath>
</defs>
</svg>
