<svg width="25" height="25" viewBox="0 0 25 25" fill="none" xmlns="http://www.w3.org/2000/svg">
<g id="vuesax/outline/24-support">
<g id="vuesax/outline/24-support_2">
<g id="24-support">
<path id="Vector" d="M12.8275 23.25C12.1275 23.25 11.4175 22.98 10.8875 22.45L9.17746 20.76C8.74746 20.34 8.18745 20.11 7.58745 20.11H6.82745C4.75745 20.11 3.07745 18.44 3.07745 16.39V5.47998C3.07745 3.42998 4.75745 1.76001 6.82745 1.76001H18.8275C20.8975 1.76001 22.5775 3.42998 22.5775 5.47998V16.39C22.5775 18.44 20.8975 20.11 18.8275 20.11H18.0675C17.4675 20.11 16.8974 20.34 16.4774 20.76L14.7675 22.45C14.2375 22.98 13.5275 23.25 12.8275 23.25ZM6.82745 3.25C5.58745 3.25 4.57745 4.24997 4.57745 5.46997V16.38C4.57745 17.61 5.58745 18.6 6.82745 18.6H7.58745C8.58745 18.6 9.52746 18.9899 10.2375 19.6899L11.9474 21.38C12.4374 21.86 13.2275 21.86 13.7175 21.38L15.4275 19.6899C16.1375 18.9899 17.0775 18.6 18.0775 18.6H18.8275C20.0675 18.6 21.0775 17.6 21.0775 16.38V5.46997C21.0775 4.23997 20.0675 3.25 18.8275 3.25H6.82745Z" fill="#E34802"/>
<path id="Vector_2" d="M11.2077 15.01H8.52768C8.08768 15.01 7.67768 14.7999 7.41768 14.4399C7.16768 14.0999 7.10768 13.68 7.22768 13.28C7.57768 12.21 8.43768 11.63 9.19768 11.11C9.99768 10.57 10.4477 10.23 10.4477 9.65002C10.4477 9.13002 10.0277 8.70996 9.50768 8.70996C8.98768 8.70996 8.56769 9.13002 8.56769 9.65002C8.56769 10.06 8.22769 10.4 7.81769 10.4C7.40769 10.4 7.06769 10.06 7.06769 9.65002C7.06769 8.31002 8.15768 7.20996 9.50768 7.20996C10.8577 7.20996 11.9477 8.30002 11.9477 9.65002C11.9477 11.06 10.8877 11.78 10.0377 12.36C9.50769 12.72 9.00768 13.06 8.75768 13.51H11.1977C11.6077 13.51 11.9477 13.85 11.9477 14.26C11.9477 14.67 11.6177 15.01 11.2077 15.01Z" fill="#E34802"/>
<path id="Vector_3" d="M16.8673 15.0101C16.4573 15.0101 16.1173 14.6701 16.1173 14.2601V13.57H14.1573C14.1573 13.57 14.1573 13.57 14.1473 13.57C13.6573 13.57 13.2073 13.3101 12.9573 12.8901C12.7073 12.4601 12.7073 11.9301 12.9573 11.5101C13.6373 10.3401 14.4273 9.01003 15.1473 7.85003C15.4673 7.34003 16.0773 7.11008 16.6473 7.27008C17.2173 7.44008 17.6173 7.96012 17.6073 8.56012V12.08H17.8273C18.2373 12.08 18.5773 12.42 18.5773 12.83C18.5773 13.24 18.2373 13.58 17.8273 13.58H17.6173V14.2701C17.6173 14.6801 17.2873 15.0101 16.8673 15.0101ZM16.1173 9.14007C15.5273 10.1001 14.9173 11.13 14.3673 12.07H16.1173V9.14007Z" fill="#E34802"/>
</g>
</g>
</g>
</svg>
