<svg width="25" height="25" viewBox="0 0 25 25" fill="none" xmlns="http://www.w3.org/2000/svg">
<g id="vuesax/outline/cards">
<g id="vuesax/outline/cards_2">
<g id="cards">
<path id="Vector" d="M19.0823 13.86H2.08234C1.67234 13.86 1.33234 13.52 1.33234 13.11C1.33234 12.7 1.67234 12.36 2.08234 12.36H19.0823C19.4923 12.36 19.8323 12.7 19.8323 13.11C19.8323 13.52 19.4923 13.86 19.0823 13.86Z" fill="#E34802"/>
<path id="Vector_2" d="M15.3023 22.25H5.86237C2.43237 22.25 1.33234 21.1601 1.33234 17.7701V10.78C1.33234 8.09005 1.94236 6.50005 5.04236 6.32005C5.30236 6.31005 5.57237 6.30005 5.86237 6.30005H15.3023C18.7323 6.30005 19.8323 7.39005 19.8323 10.78V17.93C19.7923 21.2001 18.6923 22.25 15.3023 22.25ZM5.86237 7.80005C5.59237 7.80005 5.34237 7.81005 5.11237 7.82005C3.32237 7.93005 2.83234 8.31005 2.83234 10.78V17.7701C2.83234 20.33 3.25237 20.75 5.86237 20.75H15.3023C17.8823 20.75 18.3023 20.35 18.3323 17.92V10.78C18.3323 8.22005 17.9123 7.80005 15.3023 7.80005H5.86237Z" fill="#E34802"/>
<path id="Vector_3" d="M19.0823 18.68C18.8923 18.68 18.7023 18.61 18.5723 18.48C18.4223 18.34 18.3323 18.14 18.3323 17.93V10.78C18.3323 8.22 17.9123 7.8 15.3023 7.8H5.86237C5.59237 7.8 5.34237 7.81 5.11237 7.82C4.91237 7.83 4.71232 7.75 4.56232 7.61C4.41232 7.47 4.33234 7.27 4.33234 7.06C4.37234 3.8 5.47237 2.75 8.86237 2.75H18.3023C21.7323 2.75 22.8323 3.84 22.8323 7.23V14.22C22.8323 16.91 22.2223 18.5 19.1223 18.68C19.1123 18.68 19.0923 18.68 19.0823 18.68ZM5.86237 6.3H15.3023C18.7323 6.3 19.8323 7.39 19.8323 10.78V17.1C20.9923 16.89 21.3323 16.29 21.3323 14.22V7.23C21.3323 4.67 20.9123 4.25 18.3023 4.25H8.86237C6.58237 4.25 5.99237 4.56 5.86237 6.3Z" fill="#E34802"/>
<path id="Vector_4" d="M7.0426 19.0601H5.32257C4.91257 19.0601 4.57257 18.7201 4.57257 18.3101C4.57257 17.9001 4.91257 17.5601 5.32257 17.5601H7.0426C7.4526 17.5601 7.7926 17.9001 7.7926 18.3101C7.7926 18.7201 7.4626 19.0601 7.0426 19.0601Z" fill="#E34802"/>
<path id="Vector_5" d="M12.6322 19.0601H9.1922C8.7822 19.0601 8.4422 18.7201 8.4422 18.3101C8.4422 17.9001 8.7822 17.5601 9.1922 17.5601H12.6322C13.0422 17.5601 13.3822 17.9001 13.3822 18.3101C13.3822 18.7201 13.0522 19.0601 12.6322 19.0601Z" fill="#E34802"/>
</g>
</g>
</g>
</svg>
