<svg width="25" height="25" viewBox="0 0 25 25" fill="none" xmlns="http://www.w3.org/2000/svg">
<g id="vuesax/outline/document">
<g id="vuesax/outline/document_2">
<g id="document">
<path id="Vector" d="M15.8275 23.25H9.82745C4.39745 23.25 2.07745 20.93 2.07745 15.5V9.5C2.07745 4.07 4.39745 1.75 9.82745 1.75H15.8275C21.2575 1.75 23.5775 4.07 23.5775 9.5V15.5C23.5775 20.93 21.2575 23.25 15.8275 23.25ZM9.82745 3.25C5.21745 3.25 3.57745 4.89 3.57745 9.5V15.5C3.57745 20.11 5.21745 21.75 9.82745 21.75H15.8275C20.4375 21.75 22.0775 20.11 22.0775 15.5V9.5C22.0775 4.89 20.4375 3.25 15.8275 3.25H9.82745Z" fill="#E34802"/>
<path id="Vector_2" d="M16.5775 10.25H9.07745C8.66745 10.25 8.32745 9.91 8.32745 9.5C8.32745 9.09 8.66745 8.75 9.07745 8.75H16.5775C16.9875 8.75 17.3275 9.09 17.3275 9.5C17.3275 9.91 16.9875 10.25 16.5775 10.25Z" fill="#E34802"/>
<path id="Vector_3" d="M16.5775 16.25H9.07745C8.66745 16.25 8.32745 15.91 8.32745 15.5C8.32745 15.09 8.66745 14.75 9.07745 14.75H16.5775C16.9875 14.75 17.3275 15.09 17.3275 15.5C17.3275 15.91 16.9875 16.25 16.5775 16.25Z" fill="#E34802"/>
</g>
</g>
</g>
</svg>
