<svg width="22" height="22" viewBox="0 0 22 22" fill="none" xmlns="http://www.w3.org/2000/svg">
<g id="IG">
<path id="Vector" d="M11.1027 2.19958C13.9356 2.19958 14.2711 2.212 15.3852 2.26169C16.4206 2.30723 16.9797 2.48111 17.3525 2.62601C17.8454 2.81645 18.2015 3.0483 18.5702 3.41676C18.9429 3.78937 19.1707 4.14127 19.3612 4.63394C19.5062 5.00655 19.6801 5.5696 19.7257 6.60047C19.7754 7.71829 19.7878 8.05363 19.7878 10.8813C19.7878 13.7131 19.7754 14.0484 19.7257 15.1621C19.6801 16.1971 19.5062 16.756 19.3612 17.1287C19.1707 17.6213 18.9388 17.9774 18.5702 18.3458C18.1974 18.7184 17.8454 18.9461 17.3525 19.1366C16.9797 19.2815 16.4165 19.4554 15.3852 19.5009C14.2669 19.5506 13.9315 19.563 11.1027 19.563C8.26979 19.563 7.93432 19.5506 6.82021 19.5009C5.78479 19.4554 5.22566 19.2815 4.85291 19.1366C4.36005 18.9461 4.00386 18.7143 3.63525 18.3458C3.2625 17.9732 3.03471 17.6213 2.84419 17.1287C2.69923 16.756 2.52528 16.193 2.47972 15.1621C2.43002 14.0443 2.4176 13.709 2.4176 10.8813C2.4176 8.04949 2.43002 7.71415 2.47972 6.60047C2.52528 5.56546 2.69923 5.00655 2.84419 4.63394C3.03471 4.14127 3.26664 3.78523 3.63525 3.41676C4.008 3.04416 4.36005 2.81645 4.85291 2.62601C5.22566 2.48111 5.78893 2.30723 6.82021 2.26169C7.93432 2.212 8.26979 2.19958 11.1027 2.19958ZM11.1027 0.291016C8.22424 0.291016 7.86391 0.303436 6.73323 0.353117C5.60669 0.402797 4.8322 0.58496 4.16125 0.845784C3.4613 1.11903 2.86904 1.47921 2.28092 2.07124C1.68866 2.65913 1.32834 3.25116 1.05499 3.94669C0.794059 4.62152 0.611825 5.39157 0.562125 6.51767C0.512425 7.65205 0.5 8.01223 0.5 10.8896C0.5 13.7669 0.512425 14.1271 0.562125 15.2573C0.611825 16.3834 0.794059 17.1576 1.05499 17.8283C1.32834 18.528 1.68866 19.12 2.28092 19.7079C2.86904 20.2958 3.4613 20.6601 4.1571 20.9292C4.8322 21.1901 5.60255 21.3722 6.72909 21.4219C7.85977 21.4716 8.22009 21.484 11.0986 21.484C13.977 21.484 14.3374 21.4716 15.468 21.4219C16.5946 21.3722 17.3691 21.1901 18.04 20.9292C18.7358 20.6601 19.3281 20.2958 19.9162 19.7079C20.5043 19.12 20.8688 18.528 21.138 17.8325C21.3989 17.1576 21.5812 16.3876 21.6309 15.2615C21.6806 14.1312 21.693 13.7711 21.693 10.8937C21.693 8.01637 21.6806 7.65619 21.6309 6.52595C21.5812 5.39985 21.3989 4.62566 21.138 3.95497C20.8771 3.25116 20.5167 2.65913 19.9245 2.07124C19.3364 1.48335 18.7441 1.11903 18.0483 0.849924C17.3732 0.5891 16.6029 0.406937 15.4763 0.357257C14.3415 0.303436 13.9812 0.291016 11.1027 0.291016Z" fill="#03071E"/>
<path id="Vector_2" d="M11.0966 5.58936C8.17147 5.58936 5.79834 7.96249 5.79834 10.8876C5.79834 13.8127 8.17147 16.1858 11.0966 16.1858C14.0217 16.1858 16.3948 13.8127 16.3948 10.8876C16.3948 7.96249 14.0217 5.58936 11.0966 5.58936ZM11.0966 14.3244C9.19889 14.3244 7.65978 12.7853 7.65978 10.8876C7.65978 8.9899 9.19889 7.45079 11.0966 7.45079C12.9943 7.45079 14.5334 8.9899 14.5334 10.8876C14.5334 12.7853 12.9943 14.3244 11.0966 14.3244Z" fill="#03071E"/>
<path id="Vector_3" d="M18.1608 5.1478C18.1608 5.88127 17.5654 6.47236 16.8363 6.47236C16.1028 6.47236 15.5117 5.87696 15.5117 5.1478C15.5117 4.41433 16.1071 3.82324 16.8363 3.82324C17.5654 3.82324 18.1608 4.41865 18.1608 5.1478Z" fill="#03071E"/>
</g>
</svg>
