<svg width="22" height="22" viewBox="0 0 22 22" fill="none" xmlns="http://www.w3.org/2000/svg">
<path id="LinkedIn" d="M20.1242 0.291016H2.06464C1.19953 0.291016 0.5 0.973993 0.5 1.8184V19.9525C0.5 20.7969 1.19953 21.484 2.06464 21.484H20.1242C20.9893 21.484 21.693 20.7969 21.693 19.9566V1.8184C21.693 0.973993 20.9893 0.291016 20.1242 0.291016ZM6.78753 18.3506H3.64169V8.23424H6.78753V18.3506ZM5.21461 6.85587C4.20463 6.85587 3.3892 6.04044 3.3892 5.0346C3.3892 4.02876 4.20463 3.21333 5.21461 3.21333C6.22045 3.21333 7.03588 4.02876 7.03588 5.0346C7.03588 6.0363 6.22045 6.85587 5.21461 6.85587ZM18.5596 18.3506H15.4179V13.4331C15.4179 12.2617 15.3972 10.7509 13.7829 10.7509C12.1479 10.7509 11.8995 12.0299 11.8995 13.3504V18.3506H8.76195V8.23424H11.7753V9.61676H11.8167C12.2348 8.82202 13.2613 7.98175 14.7887 7.98175C17.9718 7.98175 18.5596 10.0762 18.5596 12.7998V18.3506Z" fill="#03071E"/>
</svg>
