<svg width="25" height="25" viewBox="0 0 25 25" fill="none" xmlns="http://www.w3.org/2000/svg">
<g id="vuesax/outline/percentage-square">
<g id="vuesax/outline/percentage-square_2">
<g id="percentage-square">
<path id="Vector" d="M15.0823 22.75H9.08234C6.42473 22.75 4.64726 22.1803 3.52464 21.0577C2.40202 19.9351 1.83234 18.1576 1.83234 15.5V9.5C1.83234 6.8424 2.40202 5.06492 3.52464 3.9423C4.64726 2.81968 6.42473 2.25 9.08234 2.25H15.0823C17.7399 2.25 19.5174 2.81968 20.64 3.9423C21.7627 5.06492 22.3323 6.8424 22.3323 9.5V15.5C22.3323 18.1576 21.7627 19.9351 20.64 21.0577C19.5174 22.1803 17.7399 22.75 15.0823 22.75ZM9.08234 2.75C6.74206 2.75 5.00666 3.16107 3.87503 4.2927C2.74341 5.42432 2.33234 7.15972 2.33234 9.5V15.5C2.33234 17.8403 2.74341 19.5757 3.87503 20.7073C5.00666 21.8389 6.74206 22.25 9.08234 22.25H15.0823C17.4226 22.25 19.158 21.8389 20.2896 20.7073C21.4213 19.5757 21.8323 17.8403 21.8323 15.5V9.5C21.8323 7.15972 21.4213 5.42432 20.2896 4.2927C19.158 3.16107 17.4226 2.75 15.0823 2.75H9.08234Z" fill="#E34802" stroke="#E34802"/>
<path id="Vector_2" d="M8.6521 16.02C8.58756 16.02 8.52695 15.9978 8.47566 15.9465C8.38092 15.8517 8.38092 15.6883 8.47566 15.5936L15.0256 9.04359C15.1204 8.94885 15.2838 8.94885 15.3785 9.04359C15.4733 9.13833 15.4733 9.30174 15.3785 9.39648L8.82855 15.9465C8.77725 15.9978 8.71665 16.02 8.6521 16.02Z" fill="#E34802" stroke="#E34802"/>
<path id="Vector_3" d="M9.06235 11.11C8.24848 11.11 7.58234 10.4439 7.58234 9.63004C7.58234 8.81618 8.24849 8.15002 9.06235 8.15002C9.8762 8.15002 10.5423 8.81617 10.5423 9.63004C10.5423 10.4439 9.87621 11.11 9.06235 11.11ZM9.06235 8.66003C8.53301 8.66003 8.08234 9.08714 8.08234 9.64005C8.08234 10.1862 8.51625 10.62 9.06235 10.62C9.60849 10.62 10.0423 10.1862 10.0423 9.64005C10.0423 9.08719 9.59172 8.66003 9.06235 8.66003Z" fill="#E34802" stroke="#E34802"/>
<path id="Vector_4" d="M15.6024 16.84C14.7885 16.84 14.1224 16.1739 14.1224 15.36C14.1224 14.5461 14.7885 13.88 15.6024 13.88C16.4162 13.88 17.0824 14.5461 17.0824 15.36C17.0824 16.1738 16.4162 16.84 15.6024 16.84ZM15.6024 14.39C15.073 14.39 14.6224 14.8171 14.6224 15.37C14.6224 15.9161 15.0562 16.35 15.6024 16.35C16.1485 16.35 16.5824 15.9161 16.5824 15.37C16.5824 14.8238 16.1485 14.39 15.6024 14.39Z" fill="#E34802" stroke="#E34802"/>
</g>
</g>
</g>
</svg>
