<svg width="22" height="18" viewBox="0 0 22 18" fill="none" xmlns="http://www.w3.org/2000/svg">
<path id="Vector" d="M7.1671 17.7179C15.1625 17.7179 19.5368 10.9226 19.5368 5.03149C19.5368 4.84046 19.5327 4.64518 19.5244 4.45414C20.3754 3.823 21.1097 3.04123 21.693 2.14558C20.9005 2.50721 20.059 2.74339 19.1974 2.84605C20.1046 2.28832 20.7839 1.41217 21.1093 0.379992C20.2559 0.89874 19.3225 1.26467 18.3493 1.4621C17.6935 0.7475 16.8265 0.274348 15.8823 0.1158C14.9381 -0.0427479 13.9692 0.122139 13.1255 0.584968C12.2818 1.0478 11.6102 1.78279 11.2147 2.67631C10.8191 3.56983 10.7216 4.57211 10.9371 5.52819C9.20898 5.43924 7.51835 4.97882 5.97484 4.17678C4.43132 3.37473 3.06938 2.24895 1.9773 0.872439C1.42225 1.85392 1.2524 3.01532 1.50228 4.12062C1.75216 5.22592 2.40301 6.19216 3.32256 6.82298C2.63222 6.8005 1.957 6.60988 1.35269 6.26686V6.32204C1.35207 7.35203 1.69926 8.35045 2.33523 9.14759C2.97121 9.94473 3.85672 10.4914 4.84125 10.6946C4.20176 10.8741 3.53058 10.9002 2.87966 10.771C3.15747 11.6568 3.698 12.4316 4.4258 12.9871C5.1536 13.5427 6.03236 13.8514 6.93944 13.8701C5.39949 15.1107 3.49719 15.7836 1.53895 15.7804C1.19167 15.7799 0.844738 15.758 0.5 15.715C2.48936 17.024 4.80353 17.7192 7.1671 17.7179Z" fill="#03071E"/>
</svg>
